<svg width="188" height="125" viewBox="0 0 188 125" fill="none" xmlns="http://www.w3.org/2000/svg">
<path d="M156.372 35.2227C156.372 35.2227 130.675 8.90767 97.2849 6.87517C63.8949 4.84267 44.4174 26.4152 35.1899 39.2802C25.9624 52.1452 2.9499 73.5802 5.6574 93.2077C8.3649 112.835 34.9999 127.728 73.1174 121.185C111.235 114.643 122.302 112.16 139.677 117.125C157.052 122.09 179.61 114.643 180.062 86.4402C180.515 58.2377 156.372 35.2227 156.372 35.2227Z" fill="#C6965C"/>
<path opacity="0.7" d="M156.372 35.2227C156.372 35.2227 130.675 8.90767 97.2849 6.87517C63.8949 4.84267 44.4174 26.4152 35.1899 39.2802C25.9624 52.1452 2.9499 73.5802 5.6574 93.2077C8.3649 112.835 34.9999 127.728 73.1174 121.185C111.235 114.643 122.302 112.16 139.677 117.125C157.052 122.09 179.61 114.643 180.062 86.4402C180.515 58.2377 156.372 35.2227 156.372 35.2227Z" fill="white"/>
<path d="M175.1 116.203H179.16" stroke="#263238" stroke-miterlimit="10"/>
<path d="M6.24512 116.203H171.715" stroke="#263238" stroke-miterlimit="10"/>
<g opacity="0.15">
<path d="M38.7751 96.5425C38.0501 96.81 36.3201 96.6675 36.3176 96.6675C36.3151 96.6675 36.7576 95.5575 36.7951 95.49C37.2226 94.7175 38.5001 93.475 39.4701 93.665C39.6304 93.7012 39.7813 93.7706 39.9131 93.8688C40.0448 93.9671 40.1544 94.0919 40.2348 94.2352C40.3152 94.3785 40.3645 94.5371 40.3797 94.7008C40.3948 94.8644 40.3754 95.0294 40.3226 95.185C40.1201 95.8525 39.3951 96.315 38.7751 96.5425Z" fill="black"/>
<path d="M39.3126 98.9326C38.4276 98.4926 36.8651 99.3526 36.2501 99.9851C36.2051 100.03 35.7101 100.673 35.5401 100.905C35.5432 100.895 35.5474 100.885 35.5526 100.875C35.8315 100.014 36.0339 99.1295 36.1576 98.2326C36.2709 97.4313 36.3377 96.6241 36.3576 95.8151C36.3851 95.0651 36.3576 94.3776 36.3376 93.7701C36.3226 93.4401 36.3026 93.1376 36.2801 92.8576L36.2951 92.8701C36.3101 92.8701 36.7101 91.7501 36.7276 91.6751C36.9226 90.8151 36.7951 89.0351 35.9451 88.5301C35.8016 88.4505 35.6429 88.402 35.4794 88.3877C35.3159 88.3735 35.1512 88.3938 34.9961 88.4473C34.841 88.5008 34.6988 88.5863 34.5789 88.6984C34.459 88.8104 34.364 88.9464 34.3001 89.0976C34.0051 89.7301 34.2376 90.5576 34.5501 91.1401C34.8626 91.7226 35.9601 92.6076 36.2351 92.8226C36.2526 93.1126 36.2676 93.4251 36.2751 93.7726C36.2751 94.3801 36.2951 95.0651 36.2526 95.8126C36.2401 96.0101 36.2201 96.2226 36.2051 96.4301C36.1601 96.0776 36.0876 95.5901 36.0751 95.5451C35.8526 94.6901 34.9226 93.1701 33.9351 93.1126C33.7709 93.1083 33.6077 93.1384 33.456 93.2012C33.3042 93.264 33.1674 93.3579 33.0542 93.4769C32.9411 93.5959 32.8542 93.7374 32.7993 93.8921C32.7443 94.0468 32.7224 94.2114 32.7351 94.3751C32.7651 95.0726 33.3526 95.6976 33.8951 96.0726C34.4376 96.4476 35.8701 96.7351 36.1776 96.7926C36.1376 97.2501 36.0851 97.7201 36.0001 98.2076C35.8597 99.091 35.6414 99.9602 35.3476 100.805C35.3301 100.853 35.3051 100.9 35.2876 100.95C35.2876 100.77 35.2626 99.7851 35.2526 99.7151C35.1276 98.8426 34.3676 97.2301 33.3926 97.0651C33.23 97.0422 33.0644 97.0538 32.9066 97.0991C32.7488 97.1444 32.6023 97.2224 32.4766 97.328C32.3509 97.4337 32.2489 97.5646 32.1771 97.7122C32.1054 97.8599 32.0655 98.021 32.0601 98.1851C32.0151 98.8826 32.5301 99.5701 33.0276 100.003C33.6026 100.503 35.2126 100.965 35.2776 100.983C34.9606 101.817 34.5898 102.629 34.1676 103.415C33.8576 103.998 33.5201 104.575 33.1676 105.153C33.1676 104.918 33.1426 104.003 33.1326 103.935C33.0051 103.063 32.2451 101.45 31.2726 101.285C31.11 101.262 30.9444 101.274 30.7866 101.319C30.6288 101.364 30.4823 101.442 30.3566 101.548C30.2309 101.654 30.1289 101.785 30.0571 101.932C29.9854 102.08 29.9455 102.241 29.9401 102.405C29.8926 103.103 30.4101 103.79 30.9076 104.223C31.4676 104.708 33.0076 105.163 33.1376 105.2C32.9826 105.45 32.8276 105.723 32.6676 105.985C32.1501 106.838 31.6276 107.69 31.1351 108.548C30.9651 108.843 30.8101 109.143 30.6501 109.44C30.6501 109.09 30.6251 108.455 30.6176 108.4C30.4901 107.525 29.7301 105.9 28.7576 105.748C28.5949 105.725 28.4292 105.737 28.2714 105.783C28.1136 105.828 27.9672 105.906 27.8415 106.012C27.7159 106.118 27.6139 106.249 27.5422 106.397C27.4704 106.545 27.4305 106.706 27.4251 106.87C27.3776 107.565 27.8926 108.255 28.3926 108.685C28.8926 109.115 30.1801 109.53 30.5426 109.64C30.2926 110.14 30.0426 110.64 29.8176 111.14C29.7301 111.36 29.6226 111.58 29.5501 111.795C29.4776 112.01 29.3901 112.223 29.3126 112.435C29.1676 112.878 29.0301 113.29 28.9051 113.705C28.8401 113.915 28.7851 114.115 28.7251 114.32C28.7726 113.965 28.8401 113.4 28.8401 113.348C28.8401 112.465 28.3401 110.755 27.4026 110.445C27.2453 110.398 27.0799 110.385 26.9171 110.406C26.7544 110.427 26.5979 110.482 26.4578 110.568C26.3178 110.653 26.1973 110.768 26.1042 110.903C26.0111 111.038 25.9475 111.191 25.9176 111.353C25.8985 111.435 25.8876 111.518 25.8851 111.603C25.4527 112.249 25.1944 112.997 25.1351 113.773C25.1351 113.828 25.1851 114.498 25.2176 114.84C25.1276 114.573 25.0376 114.305 24.9476 114.025C24.8151 113.623 24.6976 113.19 24.5676 112.775L24.3951 112.115C24.3326 111.89 24.3001 111.67 24.2501 111.445C24.1851 111.113 24.1326 110.768 24.0801 110.425C24.5001 110.315 25.7226 109.973 26.2226 109.578C26.7226 109.183 27.2826 108.503 27.2676 107.805C27.2694 107.641 27.2366 107.478 27.1714 107.327C27.1061 107.177 27.0099 107.041 26.8889 106.93C26.768 106.819 26.625 106.735 26.4692 106.683C26.3135 106.631 26.1485 106.612 25.9851 106.628C25.0026 106.75 24.1751 108.328 24.0101 109.195C24.0101 109.223 23.9901 109.41 23.9726 109.633C23.9326 109.295 23.8901 108.958 23.8601 108.613C23.7776 107.64 23.7201 106.643 23.6601 105.645C23.6601 105.438 23.6326 105.23 23.6201 105.023C23.9726 104.933 25.3001 104.575 25.8251 104.16C26.3501 103.745 26.8851 103.085 26.8701 102.388C26.8723 102.223 26.8398 102.06 26.7747 101.909C26.7096 101.759 26.6133 101.623 26.4923 101.512C26.3712 101.401 26.228 101.316 26.0721 101.264C25.9162 101.212 25.7511 101.194 25.5876 101.21C24.6051 101.333 23.7776 102.91 23.6126 103.778C23.6126 103.808 23.5901 104.028 23.5701 104.278C23.5301 103.735 23.4826 103.195 23.4201 102.663C23.3134 101.746 23.1463 100.837 22.9201 99.9426C23.0451 99.9126 24.6101 99.5251 25.1926 99.0626C25.7076 98.6526 26.2526 97.9876 26.2376 97.2901C26.239 97.126 26.206 96.9634 26.1406 96.8129C26.0752 96.6623 25.979 96.5272 25.8581 96.4162C25.7372 96.3052 25.5944 96.2209 25.4388 96.1686C25.2833 96.1163 25.1185 96.0972 24.9551 96.1126C23.9726 96.2351 23.1451 97.8126 22.9801 98.6801C22.9801 98.7426 22.9076 99.5501 22.8976 99.8401V99.8076C22.6557 98.9341 22.3361 98.0841 21.9426 97.2676C21.5957 96.5373 21.2067 95.8278 20.7776 95.1426C20.3851 94.5026 19.9876 93.9401 19.6326 93.4476C19.4376 93.1801 19.2551 92.9476 19.0801 92.7201H19.1026C19.1201 92.7201 18.8276 91.5576 18.8001 91.4851C18.4901 90.6601 17.4026 89.2351 16.4151 89.2951C16.2513 89.3074 16.092 89.3541 15.9475 89.4321C15.803 89.5102 15.6766 89.6179 15.5766 89.7481C15.4765 89.8784 15.4051 90.0282 15.3669 90.188C15.3288 90.3477 15.3247 90.5137 15.3551 90.6751C15.4576 91.3651 16.1051 91.9251 16.6876 92.2401C17.2701 92.5551 18.6876 92.6876 19.0226 92.7151C19.1976 92.9501 19.3826 93.2001 19.5801 93.4851C19.9251 93.9851 20.3101 94.5526 20.6851 95.2001C20.7851 95.3701 20.8876 95.5601 20.9876 95.7401C20.7551 95.4701 20.4276 95.1051 20.3926 95.0726C19.7501 94.5001 18.1376 93.7501 17.2826 94.2501C17.143 94.3365 17.0232 94.4513 16.931 94.5871C16.8388 94.7229 16.7762 94.8766 16.7475 95.0382C16.7187 95.1998 16.7243 95.3656 16.7639 95.5249C16.8036 95.6842 16.8764 95.8333 16.9776 95.9626C17.3876 96.5276 18.2276 96.7276 18.8826 96.7401C19.5376 96.7526 20.8826 96.2026 21.1826 96.0801C21.4001 96.4851 21.6151 96.9051 21.8151 97.3576C22.1845 98.1724 22.4815 99.0182 22.7026 99.8851C22.7026 99.9351 22.7201 99.9901 22.7326 100.04C22.6401 99.8851 22.0701 99.0801 22.0251 99.0276C21.4351 98.3701 19.9126 97.4426 19.0101 97.8451C18.861 97.9145 18.7283 98.0147 18.6207 98.139C18.5131 98.2634 18.4331 98.4091 18.3859 98.5666C18.3386 98.7241 18.3253 98.8899 18.3467 99.0529C18.3681 99.2159 18.4238 99.3726 18.5101 99.5126C18.8551 100.12 19.6651 100.41 20.3176 100.495C21.0676 100.593 22.6726 100.095 22.7326 100.075C22.9266 100.945 23.0652 101.827 23.1476 102.715C23.2101 103.373 23.2476 104.04 23.2801 104.715C23.1526 104.52 22.6251 103.77 22.5801 103.715C21.9926 103.058 20.4676 102.13 19.5651 102.53C19.4162 102.6 19.2837 102.701 19.1764 102.825C19.069 102.95 18.9891 103.096 18.9419 103.253C18.8948 103.411 18.8813 103.577 18.9026 103.74C18.9238 103.903 18.9791 104.06 19.0651 104.2C19.4101 104.808 20.2201 105.098 20.8751 105.183C21.6101 105.278 23.1451 104.808 23.2751 104.768C23.2751 105.07 23.3026 105.375 23.3151 105.68C23.3526 106.68 23.3876 107.68 23.4501 108.663C23.4726 109.005 23.5076 109.34 23.5401 109.678C23.3426 109.388 22.9751 108.868 22.9376 108.825C22.3501 108.168 20.8251 107.24 19.9226 107.643C19.7737 107.713 19.6412 107.813 19.5339 107.938C19.4265 108.062 19.3466 108.208 19.2994 108.366C19.2523 108.523 19.2388 108.689 19.26 108.852C19.2813 109.015 19.3366 109.172 19.4226 109.313C19.7676 109.918 20.5776 110.208 21.2326 110.293C21.8876 110.378 23.1876 110.01 23.5526 109.9C23.6101 110.46 23.6801 111.013 23.7776 111.555C23.8226 111.788 23.8551 112.028 23.9126 112.25L24.0701 112.915C24.1926 113.365 24.3051 113.783 24.4301 114.198C24.4926 114.41 24.5551 114.605 24.6176 114.81C24.4626 114.488 24.2076 113.978 24.1776 113.935C23.6976 113.185 22.3326 112.048 21.3776 112.308C21.2196 112.354 21.0731 112.433 20.9478 112.54C20.8225 112.647 20.7211 112.779 20.6503 112.927C20.5795 113.076 20.5409 113.238 20.537 113.403C20.5331 113.567 20.5639 113.731 20.6276 113.883C20.8776 114.535 21.6276 114.945 22.2676 115.133C22.9676 115.335 24.5026 115.115 24.6926 115.088C24.8101 115.47 24.9301 115.838 25.0501 116.195H25.6651C25.5301 115.827 25.3951 115.443 25.2601 115.045C25.4326 114.975 26.7601 114.41 27.3026 113.893C27.7252 114.157 28.1635 114.396 28.6151 114.608C28.4701 115.108 28.3326 115.608 28.2151 116.06C28.2151 116.105 28.1926 116.15 28.1801 116.195H28.7851C28.8826 115.778 28.9926 115.338 29.1126 114.888C29.3026 114.925 30.8251 115.208 31.5301 115.038C32.1701 114.883 32.9451 114.505 33.2226 113.865C33.2927 113.717 33.3309 113.555 33.3346 113.391C33.3383 113.227 33.3074 113.064 33.244 112.913C33.1806 112.761 33.086 112.625 32.9665 112.513C32.8469 112.4 32.705 112.314 32.5501 112.26C31.6101 111.96 30.1951 113.045 29.6826 113.76C29.6501 113.808 29.3226 114.395 29.1626 114.698C29.2351 114.425 29.3076 114.153 29.3876 113.87C29.5001 113.46 29.6376 113.033 29.7576 112.62C29.8326 112.405 29.9051 112.19 29.9801 111.973C30.0551 111.755 30.1451 111.55 30.2301 111.335C30.3576 111.023 30.5051 110.705 30.6526 110.39C31.0626 110.53 32.2701 110.92 32.9026 110.865C33.5351 110.81 34.3801 110.555 34.7526 109.963C34.8447 109.827 34.9073 109.673 34.936 109.511C34.9648 109.349 34.9592 109.183 34.9196 109.024C34.88 108.864 34.8072 108.715 34.7061 108.586C34.6049 108.456 34.4777 108.35 34.3326 108.273C33.4476 107.835 31.8851 108.695 31.2701 109.328C31.2501 109.348 31.1326 109.495 30.9976 109.67C31.1501 109.368 31.3001 109.063 31.4651 108.76C31.9326 107.9 32.4351 107.038 32.9351 106.173C33.0401 105.993 33.1426 105.813 33.2451 105.633C33.5901 105.75 34.8951 106.185 35.5601 106.133C36.2251 106.08 37.0376 105.82 37.4101 105.23C37.5023 105.094 37.5648 104.94 37.5935 104.779C37.6223 104.617 37.6167 104.451 37.5771 104.291C37.5375 104.132 37.4647 103.983 37.3636 103.853C37.2624 103.724 37.1352 103.617 36.9901 103.54C36.1051 103.103 34.5426 103.963 33.9276 104.595C33.9051 104.618 33.7676 104.793 33.6126 104.99C33.8776 104.518 34.1376 104.043 34.3776 103.563C34.8092 102.735 35.1842 101.879 35.5001 101C35.6201 101.043 37.1401 101.583 37.8801 101.52C38.5376 101.463 39.3576 101.208 39.7301 100.618C39.8211 100.482 39.8827 100.328 39.911 100.167C39.9393 100.006 39.9336 99.8414 39.8943 99.6827C39.855 99.524 39.7829 99.3753 39.6827 99.2461C39.5825 99.117 39.4565 99.0102 39.3126 98.9326Z" fill="black"/>
<path d="M21.2327 95.8902C21.2177 95.8902 20.9827 94.7202 20.9827 94.6402C20.9127 93.7602 21.2952 92.0177 22.2077 91.6402C22.3614 91.5824 22.5255 91.5576 22.6894 91.5676C22.8533 91.5775 23.0133 91.6219 23.1589 91.6979C23.3044 91.7739 23.4324 91.8797 23.5342 92.0085C23.6361 92.1372 23.7097 92.286 23.7502 92.4452C23.9502 93.1127 23.6002 93.8977 23.2102 94.4302C22.7502 95.0527 21.2352 95.8902 21.2327 95.8902Z" fill="black"/>
</g>
<g opacity="0.15">
<path d="M165.32 96.5425C164.593 96.81 162.863 96.6675 162.863 96.6675C162.863 96.6675 163.3 95.5575 163.338 95.49C163.765 94.7175 165.045 93.475 166.015 93.665C166.175 93.7015 166.326 93.7711 166.457 93.8695C166.589 93.9678 166.698 94.0927 166.778 94.236C166.858 94.3793 166.907 94.5378 166.922 94.7013C166.937 94.8647 166.918 95.0295 166.865 95.185C166.663 95.8525 165.938 96.315 165.32 96.5425Z" fill="black"/>
<path d="M165.855 98.9327C164.97 98.4927 163.407 99.3527 162.792 99.9852C162.75 100.03 162.252 100.673 162.082 100.905C162.083 100.895 162.083 100.885 162.082 100.875C162.363 100.014 162.565 99.1298 162.687 98.2327C162.801 97.4314 162.868 96.6242 162.887 95.8152C162.915 95.0652 162.887 94.3777 162.867 93.7702C162.852 93.4402 162.832 93.1377 162.81 92.8577L162.827 92.8702C162.827 92.8702 163.24 91.7502 163.257 91.6752C163.452 90.8152 163.327 89.0352 162.477 88.5302C162.334 88.4506 162.175 88.402 162.011 88.3877C161.848 88.3735 161.683 88.3937 161.527 88.4472C161.372 88.5007 161.23 88.5863 161.11 88.6983C160.989 88.8104 160.894 88.9465 160.83 89.0977C160.537 89.7302 160.767 90.5577 161.08 91.1402C161.392 91.7227 162.492 92.6077 162.765 92.8227C162.782 93.1127 162.797 93.4252 162.807 93.7727C162.807 94.3802 162.825 95.0652 162.782 95.8127C162.782 96.0102 162.752 96.2227 162.735 96.4302C162.69 96.0777 162.62 95.5902 162.607 95.5452C162.385 94.6902 161.452 93.1702 160.465 93.1127C160.301 93.1083 160.138 93.1385 159.986 93.2013C159.834 93.264 159.697 93.358 159.584 93.477C159.471 93.596 159.384 93.7375 159.329 93.8922C159.274 94.0469 159.252 94.2115 159.265 94.3752C159.295 95.0727 159.882 95.6977 160.427 96.0727C160.972 96.4477 162.4 96.7352 162.71 96.7927C162.667 97.2502 162.615 97.7202 162.532 98.2077C162.39 99.0909 162.171 99.96 161.877 100.805C161.86 100.853 161.835 100.9 161.817 100.95C161.817 100.77 161.795 99.7852 161.785 99.7152C161.657 98.8427 160.897 97.2302 159.922 97.0652C159.76 97.0423 159.595 97.0539 159.437 97.0992C159.279 97.1445 159.133 97.2225 159.007 97.3282C158.882 97.4339 158.78 97.5648 158.709 97.7125C158.637 97.8601 158.598 98.0212 158.592 98.1852C158.545 98.8827 159.06 99.5702 159.56 100.003C160.135 100.503 161.742 100.965 161.81 100.983C161.494 101.817 161.124 102.629 160.702 103.415C160.392 103.998 160.055 104.575 159.702 105.153C159.702 104.918 159.677 104.003 159.667 103.935C159.542 103.063 158.782 101.45 157.807 101.285C157.645 101.262 157.479 101.274 157.322 101.319C157.164 101.364 157.017 101.442 156.892 101.548C156.766 101.654 156.664 101.785 156.592 101.932C156.52 102.08 156.48 102.241 156.475 102.405C156.43 103.103 156.945 103.79 157.442 104.223C158.005 104.708 159.545 105.163 159.675 105.2C159.517 105.45 159.362 105.723 159.202 105.985C158.685 106.838 158.162 107.69 157.672 108.548C157.502 108.843 157.345 109.143 157.187 109.44C157.187 109.09 157.162 108.455 157.152 108.4C157.027 107.525 156.267 105.9 155.292 105.748C155.13 105.725 154.964 105.737 154.806 105.783C154.649 105.828 154.502 105.907 154.376 106.012C154.251 106.118 154.149 106.249 154.077 106.397C154.005 106.545 153.965 106.706 153.96 106.87C153.915 107.565 154.43 108.255 154.927 108.685C155.425 109.115 156.715 109.53 157.08 109.64C156.83 110.14 156.58 110.64 156.355 111.14C156.265 111.36 156.16 111.58 156.085 111.795C156.01 112.01 155.927 112.223 155.85 112.435C155.702 112.878 155.567 113.29 155.442 113.705C155.377 113.915 155.32 114.115 155.26 114.32C155.31 113.965 155.377 113.4 155.377 113.348C155.377 112.465 154.877 110.755 153.94 110.445C153.783 110.398 153.617 110.385 153.454 110.406C153.291 110.427 153.134 110.482 152.994 110.568C152.854 110.653 152.733 110.767 152.64 110.903C152.547 111.038 152.483 111.191 152.452 111.353C152.433 111.435 152.422 111.518 152.42 111.603C151.989 112.25 151.73 112.997 151.67 113.773C151.67 113.828 151.72 114.498 151.752 114.84C151.662 114.573 151.572 114.305 151.482 114.025C151.352 113.623 151.232 113.19 151.102 112.775C151.045 112.558 150.99 112.338 150.93 112.115C150.87 111.893 150.835 111.67 150.785 111.445C150.72 111.113 150.667 110.768 150.617 110.425C151.035 110.315 152.257 109.973 152.757 109.578C153.257 109.183 153.817 108.503 153.802 107.805C153.804 107.641 153.772 107.478 153.706 107.327C153.641 107.177 153.545 107.041 153.424 106.93C153.303 106.819 153.16 106.735 153.004 106.683C152.848 106.631 152.683 106.612 152.52 106.628C151.54 106.75 150.712 108.328 150.547 109.195C150.547 109.223 150.525 109.41 150.51 109.633C150.467 109.295 150.427 108.958 150.397 108.613C150.312 107.64 150.257 106.643 150.197 105.645C150.197 105.438 150.17 105.23 150.155 105.023C150.507 104.933 151.835 104.575 152.36 104.16C152.885 103.745 153.422 103.085 153.405 102.388C153.407 102.223 153.375 102.06 153.31 101.909C153.244 101.759 153.148 101.623 153.027 101.512C152.906 101.401 152.763 101.317 152.607 101.264C152.451 101.212 152.286 101.194 152.122 101.21C151.142 101.333 150.315 102.91 150.15 103.778C150.15 103.808 150.125 104.028 150.107 104.278C150.067 103.735 150.02 103.195 149.957 102.663C149.851 101.746 149.684 100.837 149.457 99.9427C149.582 99.9127 151.147 99.5252 151.73 99.0627C152.247 98.6527 152.79 97.9877 152.775 97.2902C152.777 97.126 152.744 96.9632 152.679 96.8125C152.614 96.6618 152.517 96.5265 152.396 96.4154C152.275 96.3043 152.132 96.22 151.977 96.1678C151.821 96.1157 151.656 96.0969 151.492 96.1127C150.512 96.2352 149.685 97.8127 149.52 98.6802C149.507 98.7427 149.447 99.5502 149.435 99.8402V99.8077C149.198 98.9403 148.885 98.0954 148.5 97.2827C148.152 96.5524 147.762 95.8428 147.332 95.1577C146.942 94.5177 146.545 93.9552 146.187 93.4627C145.992 93.1952 145.81 92.9627 145.637 92.7352H145.657C145.675 92.7352 145.382 91.5727 145.357 91.5002C145.045 90.6752 143.96 89.2502 142.972 89.3102C142.808 89.3221 142.649 89.3686 142.504 89.4465C142.359 89.5244 142.233 89.6321 142.132 89.7623C142.032 89.8926 141.96 90.0426 141.922 90.2025C141.884 90.3624 141.88 90.5286 141.91 90.6902C142.015 91.3802 142.66 91.9402 143.245 92.2552C143.83 92.5702 145.245 92.7027 145.577 92.7302C145.752 92.9652 145.937 93.2152 146.135 93.5002C146.48 94.0002 146.865 94.5677 147.24 95.2152C147.342 95.3852 147.442 95.5752 147.545 95.7552C147.31 95.4852 146.982 95.1202 146.947 95.0877C146.295 94.5002 144.68 93.7502 143.825 94.2502C143.685 94.3365 143.566 94.4514 143.473 94.5872C143.381 94.723 143.319 94.8767 143.29 95.0383C143.261 95.1999 143.267 95.3657 143.306 95.525C143.346 95.6843 143.419 95.8334 143.52 95.9627C143.93 96.5277 144.77 96.7277 145.425 96.7402C146.08 96.7527 147.425 96.2027 147.725 96.0802C147.945 96.4852 148.16 96.9052 148.357 97.3577C148.73 98.1691 149.029 99.0125 149.25 99.8777C149.25 99.9277 149.27 99.9827 149.28 100.033C149.187 99.8777 148.617 99.0727 148.572 99.0202C147.985 98.3627 146.462 97.4352 145.557 97.8377C145.409 97.9077 145.277 98.0082 145.17 98.1326C145.063 98.2571 144.983 98.4027 144.936 98.5599C144.888 98.7172 144.875 98.8827 144.896 99.0455C144.917 99.2084 144.972 99.365 145.057 99.5052C145.402 100.113 146.212 100.403 146.867 100.488C147.617 100.585 149.22 100.088 149.28 100.068C149.476 100.938 149.615 101.819 149.695 102.708C149.76 103.365 149.795 104.033 149.827 104.708C149.702 104.513 149.172 103.763 149.127 103.708C148.54 103.05 147.017 102.123 146.112 102.523C145.964 102.593 145.832 102.694 145.725 102.818C145.617 102.943 145.538 103.089 145.491 103.246C145.443 103.404 145.43 103.569 145.451 103.732C145.472 103.896 145.527 104.052 145.612 104.193C145.96 104.8 146.767 105.09 147.422 105.175C148.157 105.27 149.692 104.8 149.822 104.76C149.837 105.063 149.852 105.368 149.862 105.673C149.902 106.673 149.935 107.673 150 108.655C150.02 108.998 150.055 109.333 150.087 109.67C149.89 109.38 149.522 108.86 149.485 108.818C148.897 108.16 147.375 107.233 146.47 107.635C146.321 107.705 146.189 107.806 146.081 107.93C145.974 108.055 145.894 108.201 145.847 108.358C145.8 108.516 145.786 108.682 145.807 108.845C145.829 109.008 145.884 109.165 145.97 109.305C146.317 109.91 147.125 110.2 147.78 110.285C148.435 110.37 149.735 110.003 150.1 109.893C150.16 110.453 150.23 111.005 150.325 111.548C150.372 111.78 150.402 112.02 150.46 112.243L150.617 112.908C150.74 113.358 150.852 113.775 150.98 114.19C151.04 114.403 151.105 114.598 151.167 114.803C151.01 114.48 150.755 113.97 150.727 113.928C150.245 113.178 148.88 112.04 147.927 112.3C147.769 112.346 147.623 112.426 147.498 112.532C147.372 112.639 147.271 112.771 147.2 112.92C147.129 113.069 147.091 113.231 147.087 113.395C147.083 113.56 147.114 113.723 147.177 113.875C147.427 114.528 148.177 114.938 148.817 115.125C149.515 115.328 151.052 115.108 151.24 115.08C151.36 115.463 151.49 115.83 151.6 116.188H152.25C152.117 115.819 151.982 115.436 151.847 115.038C152.02 114.968 153.347 114.403 153.887 113.885C154.31 114.149 154.749 114.388 155.2 114.6C155.055 115.1 154.92 115.6 154.8 116.053C154.8 116.098 154.777 116.143 154.765 116.188H155.37C155.467 115.77 155.58 115.33 155.697 114.88C155.887 114.918 157.41 115.2 158.115 115.03C158.757 114.875 159.53 114.498 159.807 113.858C159.878 113.71 159.917 113.548 159.921 113.384C159.925 113.22 159.894 113.057 159.831 112.906C159.768 112.754 159.673 112.618 159.554 112.505C159.434 112.393 159.292 112.307 159.137 112.253C158.195 111.953 156.78 113.038 156.267 113.753C156.235 113.8 155.907 114.388 155.747 114.69C155.82 114.418 155.892 114.145 155.972 113.863C156.085 113.453 156.222 113.025 156.345 112.613C156.417 112.398 156.492 112.183 156.567 111.965C156.642 111.748 156.732 111.543 156.817 111.328C156.945 111.015 157.092 110.698 157.237 110.383C157.647 110.523 158.855 110.913 159.487 110.858C160.12 110.803 160.965 110.548 161.335 109.955C161.427 109.819 161.49 109.666 161.519 109.504C161.548 109.342 161.542 109.176 161.503 109.017C161.464 108.858 161.391 108.708 161.29 108.579C161.189 108.449 161.062 108.342 160.917 108.265C160.03 107.828 158.47 108.688 157.852 109.32C157.832 109.34 157.717 109.488 157.58 109.663C157.732 109.36 157.885 109.055 158.05 108.753C158.517 107.893 159.02 107.03 159.52 106.165C159.625 105.985 159.725 105.805 159.83 105.625C160.172 105.743 161.477 106.178 162.145 106.125C162.812 106.073 163.622 105.813 163.992 105.223C164.085 105.087 164.148 104.933 164.177 104.771C164.206 104.609 164.2 104.443 164.161 104.284C164.121 104.124 164.048 103.975 163.947 103.845C163.845 103.716 163.718 103.609 163.572 103.533C162.687 103.095 161.127 103.955 160.51 104.588C160.487 104.61 160.35 104.785 160.197 104.983C160.462 104.51 160.72 104.035 160.962 103.555C161.379 102.728 161.741 101.875 162.045 101C162.165 101.043 163.685 101.583 164.425 101.52C165.082 101.463 165.902 101.208 166.275 100.618C166.366 100.482 166.428 100.328 166.456 100.167C166.485 100.006 166.479 99.8407 166.439 99.6819C166.4 99.5231 166.327 99.3743 166.227 99.2453C166.126 99.1162 165.999 99.0097 165.855 98.9327Z" fill="black"/>
<path d="M147.777 95.8903C147.76 95.8903 147.527 94.7203 147.527 94.6403C147.457 93.7603 147.84 92.0178 148.755 91.6403C148.908 91.5819 149.072 91.5566 149.236 91.5658C149.4 91.5751 149.56 91.6187 149.706 91.6939C149.852 91.7692 149.981 91.8743 150.084 92.0024C150.186 92.1306 150.261 92.2789 150.302 92.4378C150.502 93.1053 150.152 93.8903 149.762 94.4228C149.297 95.0528 147.777 95.8903 147.777 95.8903Z" fill="black"/>
</g>
<g opacity="0.15">
<path d="M130.125 35.5352C131.275 36.3102 134.347 36.8002 134.35 36.8002C134.352 36.8002 134.057 34.6777 134.022 34.5502C133.607 33.0227 131.907 30.3152 130.137 30.2352C128.862 30.1752 127.942 31.2952 128.01 32.5177C128.077 33.7402 129.142 34.8752 130.125 35.5352Z" fill="black"/>
<path d="M139.122 74.0001C139.122 74.0726 139.122 74.1401 139.122 74.2101L140.185 74.8751C140.185 74.5876 140.185 74.2951 140.185 73.9951C140.172 73.1426 140.145 72.2326 140.105 71.2976C140.981 71.1182 141.845 70.8887 142.695 70.6101C143.41 71.7401 145.49 73.2876 145.76 73.4851C145.31 74.1951 144.865 74.8801 144.432 75.5176C144.137 75.9601 143.85 76.3801 143.572 76.7851L144.727 76.9951C144.92 76.7026 145.112 76.4051 145.312 76.0951C145.772 75.3776 146.252 74.5951 146.735 73.8001C147.05 73.9276 149.635 74.9626 150.937 74.9101C152.117 74.8601 153.607 74.4676 154.32 73.4401C155.032 72.4126 154.82 70.9976 153.702 70.3801C152.152 69.5226 149.285 70.9401 148.132 72.0251C148.065 72.0876 147.405 72.8651 146.995 73.3601C147.192 73.0326 147.385 72.7151 147.582 72.3751C147.977 71.7051 148.352 71.0226 148.757 70.2926L149.312 69.2001C149.507 68.8401 149.665 68.4351 149.845 68.0501C150.242 67.1476 150.595 66.2126 150.94 65.2651C151.527 65.6076 153.635 66.8026 154.815 66.9326C155.995 67.0626 157.522 66.9026 158.382 65.9926C159.242 65.0826 159.247 63.6551 158.235 62.8751C156.832 61.7926 153.785 62.7601 152.485 63.6551C152.405 63.7126 151.54 64.4601 151.075 64.8801C151.275 64.3101 151.477 63.7401 151.66 63.1526C152.19 61.4651 152.675 59.7376 153.16 58.0176C153.31 57.4901 153.465 56.9651 153.62 56.4426C153.827 56.5676 156.3 58.0376 157.62 58.1926C158.795 58.3226 160.327 58.1626 161.187 57.2526C162.047 56.3426 162.052 54.9151 161.04 54.1351C159.637 53.0526 156.59 54.0201 155.29 54.9176C155.192 54.9851 153.952 56.0626 153.65 56.3526C153.99 55.1976 154.337 54.0501 154.727 52.9326C155.241 51.4173 155.853 49.9367 156.557 48.5001C156.655 48.5576 159.23 50.1051 160.585 50.2501C161.76 50.3801 163.292 50.2201 164.152 49.3101C165.012 48.4001 165.015 46.9726 164.005 46.1926C162.6 45.1101 159.552 46.0776 158.255 46.9751C158.152 47.0451 156.817 48.2076 156.59 48.4351C156.632 48.3526 156.667 48.2626 156.71 48.1851C157.462 46.7681 158.339 45.4211 159.33 44.1601C159.867 43.4576 160.42 42.8151 160.972 42.2001C161.422 42.5401 163.497 44.0576 164.7 44.3276C165.855 44.5776 167.395 44.5951 168.35 43.7876C169.305 42.9801 169.465 41.5576 168.545 40.6701C167.27 39.4426 164.135 40.0676 162.74 40.8151C162.665 40.8576 161.94 41.3551 161.415 41.7276C161.665 41.4526 161.927 41.1676 162.165 40.9101C163.095 39.9451 164.005 39.1201 164.817 38.3926C165.282 37.9851 165.712 37.6251 166.117 37.2901C166.732 37.3926 169.212 37.7676 170.382 37.4576C171.552 37.1476 172.897 36.4576 173.382 35.2951C173.867 34.1326 173.345 32.7951 172.132 32.4401C170.435 31.9401 167.94 33.9401 167.047 35.2426C166.97 35.3576 165.967 37.2601 165.997 37.2676H166.035C165.64 37.5801 165.217 37.9201 164.765 38.3001C163.935 39.0101 163.015 39.8201 162.05 40.7676C161.01 41.7784 160.03 42.8494 159.115 43.9751C158.081 45.2305 157.161 46.5749 156.365 47.9926C156.355 48.0096 156.347 48.0271 156.34 48.0451C156.442 47.5451 156.68 46.1026 156.685 45.9926C156.767 44.4101 155.995 41.3076 154.34 40.6776C153.145 40.2251 151.922 41.0026 151.605 42.1776C151.287 43.3526 151.945 44.7751 152.672 45.7101C153.49 46.7626 156.052 48.1026 156.255 48.2101C155.486 49.677 154.816 51.1937 154.25 52.7501C153.912 53.6526 153.602 54.5701 153.3 55.5001C153.375 55.0551 153.437 54.6601 153.44 54.6026C153.522 53.0226 152.752 49.9201 151.095 49.2901C149.9 48.8376 148.677 49.6126 148.36 50.7901C148.042 51.9676 148.702 53.3876 149.427 54.3201C150.152 55.2526 152.325 56.4551 152.9 56.7626C152.79 57.1176 152.672 57.4726 152.562 57.8301C152.035 59.5426 151.515 61.2526 150.952 62.9151C150.757 63.5001 150.54 64.0701 150.325 64.6401C150.392 64.2476 150.442 63.9151 150.445 63.8626C150.527 62.2826 149.757 59.1801 148.1 58.5501C146.905 58.0976 145.682 58.8726 145.365 60.0501C145.047 61.2276 145.707 62.6476 146.432 63.5801C147.157 64.5126 149.12 65.5976 149.802 65.9651C149.565 66.5451 149.33 67.1226 149.072 67.6726C148.89 68.0426 148.74 68.4226 148.535 68.7751L147.957 69.8551C147.562 70.5276 147.162 71.2226 146.762 71.8701C146.487 72.3201 146.215 72.7451 145.945 73.1751C146.147 72.5926 146.522 71.4476 146.542 71.3501C146.773 69.9765 146.648 68.5667 146.18 67.2551C146.213 67.1039 146.231 66.9498 146.235 66.7951C146.26 65.5701 145.305 64.4801 144.03 64.5826C142.265 64.7251 140.655 67.4876 140.28 69.0276C140.257 69.1176 140.135 70.1301 140.07 70.7776C140.05 70.3951 140.037 70.0276 140.015 69.6301C139.975 68.8526 139.91 68.0801 139.845 67.2451C139.8 66.8426 139.752 66.4376 139.707 66.0276C139.662 65.6176 139.577 65.1951 139.515 64.7776C139.347 63.8051 139.132 62.8301 138.892 61.8501C139.572 61.8126 141.987 61.6451 143.045 61.1001C144.102 60.5551 145.295 59.5826 145.502 58.3501C145.71 57.1176 144.932 55.9226 143.66 55.8301C141.89 55.7026 139.882 58.1901 139.29 59.6576C139.252 59.7476 138.945 60.8476 138.79 61.4576C138.642 60.8701 138.497 60.2826 138.327 59.6926C137.827 57.9901 137.287 56.2826 136.747 54.5776C136.582 54.0551 136.422 53.5326 136.262 53.0101C136.512 53.0101 139.38 52.8626 140.562 52.2601C141.615 51.7201 142.812 50.7401 143.02 49.5101C143.227 48.2801 142.452 47.0826 141.177 46.9901C139.41 46.8626 137.402 49.3501 136.81 50.8176C136.765 50.9276 136.325 52.5126 136.232 52.9201C135.88 51.7701 135.537 50.6201 135.245 49.4726C134.843 47.9253 134.543 46.3537 134.345 44.7676C134.457 44.7676 137.46 44.6326 138.672 44.0176C139.722 43.4776 140.922 42.4976 141.13 41.2676C141.337 40.0376 140.56 38.8401 139.285 38.7476C137.517 38.6201 135.51 41.1076 134.917 42.5751C134.87 42.6901 134.4 44.3951 134.335 44.7101C134.335 44.6176 134.302 44.5226 134.292 44.4326C134.139 42.8359 134.127 41.2288 134.257 39.6301C134.317 38.7451 134.427 37.9051 134.55 37.0901C135.11 37.1226 137.677 37.2451 138.83 36.8076C139.935 36.3851 141.227 35.5426 141.58 34.3426C141.932 33.1426 141.282 31.8676 140.025 31.6351C138.275 31.3151 136.012 33.5651 135.262 34.9576C135.222 35.0351 134.892 35.8501 134.66 36.4576C134.722 36.0926 134.777 35.7076 134.845 35.3601C135.095 34.0426 135.39 32.8601 135.667 31.7976C135.83 31.1976 135.99 30.6601 136.145 30.1601C136.712 29.9101 138.987 28.8501 139.795 27.9451C140.602 27.0401 141.337 25.7201 141.095 24.4926C140.852 23.2651 139.687 22.4351 138.467 22.8076C136.772 23.3251 135.795 26.3701 135.77 27.9526C135.77 28.0876 135.982 30.2301 136.02 30.2176L136.055 30.2026C135.897 30.6826 135.732 31.2026 135.555 31.7651C135.255 32.8151 134.922 34.0026 134.65 35.3201C134.341 36.7374 134.115 38.1715 133.972 39.6151C133.805 41.2307 133.782 42.858 133.905 44.4776C133.903 44.4967 133.903 44.5159 133.905 44.5351C133.707 44.0551 133.115 42.7276 133.06 42.6301C132.255 41.2676 129.9 39.1051 128.172 39.4951C126.922 39.7751 126.335 41.0976 126.722 42.2601C127.11 43.4226 128.44 44.2376 129.56 44.6176C130.81 45.0426 133.7 44.7501 133.927 44.7251C134.094 46.3622 134.369 47.9866 134.75 49.5876C134.967 50.5251 135.215 51.4651 135.475 52.4026C135.292 51.9926 135.127 51.6276 135.097 51.5776C134.295 50.2151 131.94 48.0526 130.21 48.4426C128.96 48.7201 128.372 50.0426 128.76 51.1926C129.147 52.3426 130.48 53.1726 131.6 53.5501C132.72 53.9276 135.192 53.7326 135.85 53.6701C135.952 54.0301 136.052 54.3876 136.157 54.7476C136.657 56.4651 137.157 58.1801 137.62 59.8751C137.777 60.4726 137.912 61.0676 138.047 61.6626C137.885 61.2976 137.745 60.9926 137.72 60.9476C136.915 59.5851 134.562 57.4226 132.832 57.8101C131.582 58.0901 130.995 59.4126 131.382 60.5751C131.77 61.7376 133.1 62.5551 134.222 62.9326C135.305 63.2976 137.575 63.1326 138.347 63.0626C138.467 63.6751 138.597 64.2901 138.68 64.8876C138.732 65.2976 138.812 65.6901 138.84 66.1051C138.867 66.5201 138.915 66.9226 138.952 67.3251C138.995 68.1026 139.045 68.9051 139.067 69.6626C139.087 70.1926 139.095 70.6951 139.107 71.2026C138.955 70.6076 138.637 69.4526 138.607 69.3501C138 67.8926 136 65.4001 134.235 65.5226C132.96 65.6101 132.175 66.8276 132.385 68.0351C132.595 69.2426 133.782 70.2526 134.832 70.7851C135.987 71.3826 138.762 71.5351 139.107 71.5526C139.122 72.4026 139.13 73.2201 139.122 74.0001Z" fill="black"/>
<path d="M160.957 41.8575C160.98 41.88 161.885 39.925 161.927 39.7975C162.427 38.2975 162.5 35.0975 161.067 34.0475C160.037 33.2975 158.652 33.72 158.032 34.78C157.412 35.84 157.675 37.375 158.13 38.4675C158.662 39.75 160.955 41.8575 160.957 41.8575Z" fill="black"/>
</g>
<g opacity="0.15">
<path d="M66.8123 30.9854C66.1948 32.2354 63.7648 34.1704 63.7623 34.1704C63.7598 34.1704 62.9673 32.1704 62.9348 32.0479C62.5398 30.5154 62.6848 27.3204 64.1848 26.3754C65.2648 25.6954 66.6173 26.2154 67.1623 27.3104C67.7073 28.4054 67.3398 29.9254 66.8123 30.9854Z" fill="black"/>
<path d="M77.9774 68.8651L78.0849 69.0476L77.4999 70.1501C77.3574 69.9001 77.2174 69.6501 77.0724 69.3801C76.6624 68.6301 76.2374 67.8276 75.8099 66.9951C74.9607 67.2728 74.0959 67.4998 73.2199 67.6751C73.1549 69.0126 72.1099 71.3851 71.9699 71.6901C72.7199 72.0851 73.4374 72.4601 74.1274 72.8026C74.6024 73.041 75.0607 73.266 75.5024 73.4776L74.5999 74.2276L73.6474 73.7276C72.8974 73.3301 72.0949 72.8926 71.2774 72.4351C71.0674 72.7026 69.3299 74.8776 68.1724 75.4726C67.1199 76.0151 65.6299 76.4101 64.5024 75.8676C63.3749 75.3251 62.8624 73.9901 63.5299 72.9026C64.4549 71.4026 67.6474 71.2076 69.1849 71.5801C69.2774 71.6026 70.2349 71.9526 70.8349 72.1826C70.5024 71.9926 70.1774 71.8126 69.8349 71.6151C69.1599 71.2276 68.4974 70.8176 67.7849 70.3826L66.7499 69.7201C66.4049 69.5001 66.0649 69.2201 65.7199 68.9701C64.9274 68.3801 64.1549 67.7451 63.3924 67.0876C63.0499 67.6776 61.8074 69.7551 60.8449 70.4526C59.8824 71.1501 58.4749 71.7626 57.2799 71.3976C56.0849 71.0326 55.3724 69.7901 55.8674 68.6126C56.5549 66.9801 59.6799 66.3151 61.2574 66.4501C61.3549 66.4501 62.4774 66.6851 63.0899 66.8201C62.6324 66.4201 62.1749 66.0251 61.7274 65.6076C60.4324 64.4001 59.1574 63.1376 57.8824 61.8826C57.4899 61.4976 57.0974 61.1326 56.7049 60.7401C56.5849 60.9526 55.1624 63.4526 54.0849 64.2401C53.1274 64.9351 51.7149 65.5526 50.5174 65.1851C49.3199 64.8176 48.6124 63.5801 49.1074 62.4026C49.7924 60.7676 52.9199 60.1026 54.4974 60.2401C54.6149 60.2401 56.2274 60.5751 56.6324 60.6776C55.7674 59.8426 54.8974 59.0151 54.0049 58.2351C52.807 57.1769 51.5419 56.1973 50.2174 55.3026C50.1624 55.4026 48.6874 58.0201 47.5849 58.8176C46.6274 59.5126 45.2149 60.1301 44.0199 59.7626C42.8249 59.3951 42.1124 58.1576 42.6074 56.9801C43.2949 55.3451 46.4199 54.6801 47.9974 54.8176C48.1199 54.8176 49.8549 55.1776 50.1649 55.2651C50.0874 55.2126 50.0124 55.1526 49.9349 55.1026C48.582 54.241 47.1546 53.5022 45.6699 52.8951C44.8549 52.5501 44.0574 52.2651 43.2724 52.0051C43.0499 52.5201 41.9974 54.8651 41.0824 55.6951C40.2074 56.4876 38.8724 57.2576 37.6424 57.0251C36.4124 56.7926 35.5724 55.6376 35.9324 54.4126C36.4324 52.7126 39.4699 51.7101 41.0524 51.6626C41.1399 51.6626 42.0174 51.7351 42.6549 51.8001C42.2999 51.6876 41.9349 51.5651 41.5924 51.4651C40.3074 51.0851 39.1074 50.8151 38.0399 50.5851C37.4349 50.4601 36.8824 50.3576 36.3674 50.2701C35.8824 50.6601 33.9099 52.2126 32.7399 52.5201C31.5699 52.8276 30.0574 52.8901 29.0724 52.1176C28.0874 51.3451 27.8749 49.9301 28.7599 49.0101C29.9899 47.7351 33.1449 48.2426 34.5674 48.9376C34.6899 48.9976 36.5024 50.1576 36.4774 50.1876L36.4499 50.2126C36.9499 50.2876 37.4824 50.3751 38.0624 50.4826C39.1349 50.6901 40.3449 50.9351 41.6424 51.2876C43.0465 51.6533 44.428 52.1007 45.7799 52.6276C47.2953 53.2105 48.756 53.9267 50.1449 54.7676L50.1949 54.8001C49.8524 54.4076 48.9449 53.2801 48.8799 53.1851C48.0274 51.8526 47.1649 48.7726 48.2949 47.4076C49.1099 46.4226 50.5449 46.4951 51.4174 47.3676C52.2899 48.2401 52.4024 49.7951 52.2324 50.9651C52.0399 52.2851 50.4824 54.7151 50.3524 54.9076C51.7432 55.8006 53.0736 56.7844 54.3349 57.8526C55.0849 58.4701 55.7999 59.1176 56.5174 59.7726C56.2349 59.4251 55.9824 59.1101 55.9524 59.0626C55.1024 57.7276 54.2399 54.6501 55.3699 53.2851C56.1849 52.3001 57.6199 52.3726 58.4899 53.2451C59.3599 54.1176 59.4774 55.6726 59.3074 56.8426C59.1374 58.0126 57.8424 60.1301 57.4924 60.6801C57.7649 60.9301 58.0424 61.1801 58.3124 61.4426C59.6174 62.6701 60.9149 63.9001 62.2224 65.0676C62.6849 65.4801 63.1524 65.8676 63.6224 66.2601C63.3724 65.9501 63.1624 65.6851 63.1224 65.6426C62.2699 64.3076 61.4074 61.2301 62.5374 59.8651C63.3524 58.8801 64.7874 58.9526 65.6599 59.8251C66.5324 60.6976 66.6649 62.2501 66.4999 63.4251C66.3349 64.6001 65.1599 66.5051 64.7499 67.1626C65.2499 67.5476 65.7324 67.9351 66.2274 68.2876C66.5699 68.5176 66.8824 68.7651 67.2399 68.9801L68.2774 69.6326C68.9499 70.0226 69.6424 70.4301 70.3099 70.7926C70.7724 71.0426 71.2174 71.2926 71.6649 71.5251C71.1999 71.1201 70.3099 70.3101 70.2424 70.2351C69.3634 69.1511 68.7765 67.8601 68.5374 66.4851C68.4344 66.3688 68.3424 66.2433 68.2624 66.1101C67.6349 65.0576 67.9299 63.6401 69.0874 63.1101C70.6924 62.3601 73.4549 63.9676 74.5324 65.1276C74.5949 65.1976 75.2024 66.0151 75.5749 66.5401C75.4024 66.1976 75.2299 65.8701 75.0574 65.5151C74.7074 64.8201 74.3824 64.1151 74.0249 63.3576C73.8682 62.9843 73.7082 62.6085 73.5449 62.2301C73.3774 61.8576 73.2474 61.4426 73.0949 61.0476C72.7599 60.1201 72.4649 59.1626 72.1899 58.1926C71.5799 58.4976 69.3974 59.5451 68.2099 59.5951C67.0224 59.6451 65.5099 59.3801 64.7099 58.4151C63.9099 57.4501 64.0049 56.0226 65.0674 55.3151C66.5424 54.3301 69.5174 55.5001 70.7574 56.4851C70.8349 56.5451 71.6449 57.3501 72.0824 57.8026C71.9199 57.2176 71.7574 56.6351 71.6149 56.0401C71.1999 54.3176 70.8324 52.5626 70.4624 50.8126C70.3474 50.2751 70.2274 49.7426 70.1099 49.2101C69.8924 49.3201 67.3249 50.6201 65.9974 50.6776C64.8174 50.7276 63.2974 50.4626 62.4974 49.4976C61.6974 48.5326 61.7924 47.1076 62.8549 46.3976C64.3299 45.4126 67.3024 46.5851 68.5424 47.5676C68.6374 47.6426 69.7924 48.8026 70.0824 49.1126C69.8324 47.9376 69.5524 46.7676 69.2399 45.6251C68.8245 44.0816 68.3093 42.5668 67.6974 41.0901C67.5974 41.1401 64.9249 42.5101 63.5624 42.5701C62.3824 42.6201 60.8624 42.3551 60.0624 41.3901C59.2624 40.4251 59.3599 38.9976 60.4199 38.2901C61.8949 37.3051 64.8699 38.4751 66.1099 39.4601C66.2074 39.5351 67.4599 40.7851 67.6699 41.0276C67.6349 40.9426 67.6074 40.8501 67.5699 40.7651C66.9213 39.3022 66.1449 37.8992 65.2499 36.5726C64.7499 35.8351 64.2499 35.1551 63.7499 34.5076C63.2799 34.8126 61.1074 36.1901 59.8874 36.3776C58.7199 36.5551 57.1824 36.4601 56.2849 35.5876C55.3874 34.7151 55.3224 33.2876 56.2999 32.4676C57.6574 31.3276 60.7424 32.1651 62.0824 33.0051C62.1549 33.0501 62.8324 33.5976 63.3324 34.0051C63.0974 33.7176 62.8599 33.4126 62.6299 33.1401C61.7674 32.1151 60.9149 31.2276 60.1524 30.4501C59.7174 30.0101 59.3124 29.6201 58.9324 29.2601C58.3124 29.3201 55.8124 29.5251 54.6649 29.1376C53.5174 28.7501 52.2224 27.9651 51.8299 26.7776C51.4374 25.5901 52.0349 24.2926 53.2799 24.0276C55.0099 23.6401 57.3624 25.8051 58.1649 27.1701C58.2349 27.2876 59.1074 29.2551 59.0749 29.2601H59.0374C59.4124 29.5976 59.8074 29.9676 60.2349 30.3776C61.0149 31.1401 61.8899 32.0101 62.7774 33.0226C63.7457 34.1026 64.6505 35.2379 65.4874 36.4226C66.4307 37.744 67.254 39.1471 67.9474 40.6151L67.9699 40.6701C67.9024 40.1551 67.7624 38.7101 67.7649 38.5976C67.7899 37.0151 68.7649 33.9726 70.4649 33.4551C71.6874 33.0851 72.8549 33.9426 73.0899 35.1451C73.3249 36.3476 72.5749 37.7151 71.7874 38.5951C70.8999 39.5951 68.2524 40.7551 68.0374 40.8451C68.7058 42.3569 69.2737 43.9111 69.7374 45.4976C70.0124 46.4201 70.2599 47.3601 70.4874 48.3026C70.4424 47.8551 70.4074 47.4551 70.4074 47.4001C70.4324 45.8176 71.4074 42.7751 73.1099 42.2576C74.3299 41.8876 75.4974 42.7451 75.7349 43.9476C75.9724 45.1501 75.2174 46.5176 74.4299 47.3976C73.6424 48.2776 71.3949 49.3301 70.7999 49.5976C70.8874 49.9601 70.9774 50.3226 71.0624 50.6851C71.4749 52.4351 71.8774 54.1701 72.3249 55.8676C72.4824 56.4651 72.6599 57.0476 72.8249 57.6326C72.7849 57.2351 72.7549 56.9001 72.7574 56.8476C72.7824 55.2651 73.7574 52.2226 75.4574 51.7076C76.6799 51.3351 77.8474 52.1926 78.0824 53.3951C78.3174 54.5976 77.5674 55.9651 76.7799 56.8476C75.9924 57.7301 73.9624 58.6776 73.2549 58.9976C73.4524 59.5901 73.6499 60.1851 73.8674 60.7476C74.0249 61.1301 74.1499 61.4976 74.3299 61.8851L74.8299 63.0001C75.1749 63.6976 75.5299 64.4201 75.8849 65.0901C76.1349 65.5601 76.3699 66.0026 76.6099 66.4501C76.4474 65.8551 76.1524 64.7001 76.1374 64.5876C75.9224 63.0201 76.4299 59.8626 78.0299 59.0876C79.1799 58.5351 80.4649 59.2051 80.8799 60.3576C81.2949 61.5101 80.7574 62.9751 80.1124 63.9651C79.4024 65.0576 77.0674 66.5601 76.7749 66.7451C77.1924 67.4851 77.5924 68.1976 77.9774 68.8651Z" fill="black"/>
<path d="M43.1249 51.7078C43.1249 51.7378 41.3624 50.4853 41.2624 50.3928C40.0874 49.3328 38.4449 46.5903 39.1724 44.9753C39.6974 43.8103 41.1124 43.4978 42.1724 44.1128C43.2324 44.7278 43.7649 46.1928 43.9099 47.3628C44.0799 48.7503 43.1249 51.7053 43.1249 51.7078Z" fill="black"/>
</g>
<path d="M105.717 69.0351L116.377 14.2626C116.422 14.0315 116.512 13.8114 116.642 13.6151C116.772 13.4187 116.94 13.2499 117.135 13.1182C117.33 12.9866 117.55 12.8947 117.78 12.8479C118.011 12.801 118.249 12.8001 118.48 12.8451L151.125 19.2001C151.356 19.2447 151.576 19.3345 151.772 19.4642C151.969 19.594 152.138 19.7611 152.269 19.9562C152.401 20.1512 152.493 20.3703 152.54 20.6009C152.587 20.8315 152.587 21.0691 152.542 21.3001L141.882 76.0726C141.792 76.5389 141.52 76.9502 141.126 77.216C140.732 77.4818 140.249 77.5804 139.782 77.4901L107.135 71.1351C106.669 71.0444 106.257 70.7722 105.992 70.3785C105.726 69.9847 105.627 69.5015 105.717 69.0351Z" fill="#263238" stroke="#263238" stroke-miterlimit="10"/>
<path d="M122.314 24.6342L123.514 18.4648L120.962 17.9683L119.761 24.1376L122.314 24.6342Z" fill="white" stroke="#263238" stroke-width="0.5" stroke-miterlimit="10"/>
<path d="M120.719 32.8217L121.919 26.6523L119.367 26.1558L118.167 32.3251L120.719 32.8217Z" fill="white" stroke="#263238" stroke-width="0.5" stroke-miterlimit="10"/>
<path d="M119.124 41.0145L120.324 34.8452L117.772 34.3487L116.572 40.518L119.124 41.0145Z" fill="white" stroke="#263238" stroke-width="0.5" stroke-miterlimit="10"/>
<path d="M117.532 49.2045L118.732 43.0352L116.18 42.5386L114.98 48.7079L117.532 49.2045Z" fill="white" stroke="#263238" stroke-miterlimit="10"/>
<path d="M116.134 57.2604L117.328 51.1011L114.78 50.6071L113.586 56.7664L116.134 57.2604Z" fill="white" stroke="#263238" stroke-width="0.998248" stroke-miterlimit="10"/>
<path d="M114.342 65.5844L115.542 59.415L112.99 58.9185L111.79 65.0878L114.342 65.5844Z" fill="white" stroke="#263238" stroke-miterlimit="10"/>
<path d="M137.017 34.1583L139.309 22.3792C139.396 21.9306 139.103 21.4961 138.655 21.4089L130.282 19.7798C129.833 19.6925 129.399 19.9854 129.311 20.434L127.019 32.2132C126.932 32.6618 127.225 33.0962 127.674 33.1835L136.047 34.8125C136.495 34.8998 136.93 34.6069 137.017 34.1583Z" fill="white" stroke="#263238" stroke-width="0.5" stroke-miterlimit="10"/>
<path d="M142.053 52.5406L147.765 23.1836L146.275 22.8938L140.564 52.2508L142.053 52.5406Z" fill="white" stroke="#263238" stroke-width="0.5" stroke-miterlimit="10"/>
<path d="M75.8086 16.221L59.7024 40.1445L101.123 68.0303L117.229 44.1068L75.8086 16.221Z" fill="#C6965C" stroke="#263238" stroke-width="0.5" stroke-miterlimit="10"/>
<path d="M80.1675 22.5273C79.9124 22.9065 79.5851 23.2318 79.2043 23.4845C78.8234 23.7371 78.3965 23.9122 77.9479 23.9998C77.4993 24.0873 77.0378 24.0856 76.5899 23.9946C76.142 23.9037 75.7164 23.7253 75.3375 23.4698C75.2192 23.3892 75.1064 23.3006 75 23.2048L65.75 36.9548C65.8782 37.0191 66.0026 37.0909 66.1225 37.1698C66.5018 37.4248 66.827 37.7522 67.0797 38.133C67.3324 38.5139 67.5075 38.9408 67.595 39.3894C67.6825 39.838 67.6808 40.2994 67.5898 40.7474C67.4989 41.1953 67.3206 41.6209 67.065 41.9998C67.025 42.0598 66.98 42.1148 66.9375 42.1723L96.5325 62.0973C96.5675 62.0348 96.6025 61.9723 96.6425 61.9123C96.917 61.5022 97.2759 61.1553 97.6951 60.8949C98.1143 60.6345 98.5843 60.4665 99.0736 60.4021C99.5629 60.3378 100.06 60.3785 100.533 60.5217C101.005 60.6648 101.441 60.9071 101.812 61.2323L111.062 47.4973C110.934 47.4329 110.81 47.3611 110.69 47.2823C110.309 47.027 109.983 46.6989 109.729 46.3169C109.476 45.9349 109.3 45.5066 109.213 45.0566C109.125 44.6065 109.128 44.1436 109.22 43.6945C109.312 43.2454 109.492 42.819 109.75 42.4398C109.826 42.3211 109.909 42.2075 110 42.0998L80.3825 22.1548C80.3176 22.2827 80.2458 22.4071 80.1675 22.5273ZM93.195 45.3098C92.5648 46.245 91.6715 46.9723 90.628 47.3999C89.5844 47.8274 88.4376 47.936 87.3324 47.7118C86.2272 47.4876 85.2133 46.9408 84.4188 46.1404C83.6243 45.34 83.085 44.3221 82.8691 43.2153C82.6531 42.1084 82.7701 40.9624 83.2054 39.9221C83.6406 38.8818 84.3746 37.9939 85.3144 37.3706C86.2543 36.7474 87.3578 36.4168 88.4855 36.4206C89.6132 36.4245 90.7144 36.7626 91.65 37.3923C92.2717 37.8103 92.805 38.3469 93.2192 38.9712C93.6334 39.5955 93.9204 40.2954 94.0639 41.0307C94.2074 41.7661 94.2046 42.5225 94.0555 43.2568C93.9063 43.991 93.614 44.6886 93.195 45.3098Z" fill="white" stroke="#263238" stroke-width="0.5" stroke-miterlimit="10"/>
<path d="M79.787 12.6619L60.7791 34.3516L98.3318 67.2612L117.34 45.5715L79.787 12.6619Z" fill="#C6965C" stroke="#263238" stroke-width="0.5" stroke-miterlimit="10"/>
<path d="M83.3126 19.4724C82.7041 20.1662 81.8451 20.5899 80.9243 20.6503C80.0036 20.7108 79.0965 20.4031 78.4026 19.7949C78.2956 19.7022 78.1938 19.6037 78.0976 19.4999L67.1851 31.9524C67.3044 32.0285 67.4188 32.112 67.5276 32.2024C67.8713 32.5035 68.1524 32.8694 68.3547 33.2792C68.557 33.689 68.6765 34.1346 68.7065 34.5906C68.7364 35.0466 68.6762 35.504 68.5293 35.9368C68.3823 36.3695 68.1515 36.769 67.8501 37.1124C67.8026 37.1649 67.7526 37.2149 67.7001 37.2649L94.5326 60.7799C94.5751 60.7224 94.6176 60.6649 94.6651 60.6124C95.2731 59.9184 96.132 59.4942 97.0528 59.4333C97.9735 59.3723 98.8808 59.6796 99.5751 60.2874C99.6823 60.3834 99.7841 60.4852 99.8801 60.5924L110.795 48.1399C110.675 48.0639 110.56 47.9804 110.45 47.8899C110.106 47.5889 109.825 47.223 109.623 46.8132C109.421 46.4034 109.301 45.9578 109.271 45.5018C109.241 45.0458 109.301 44.5883 109.448 44.1556C109.595 43.7229 109.826 43.3234 110.128 42.9799C110.224 42.8735 110.325 42.7725 110.433 42.6774L83.5751 19.1274C83.495 19.2479 83.4073 19.3632 83.3126 19.4724ZM93.3501 43.7224C92.6067 44.5706 91.6285 45.1792 90.5391 45.4714C89.4498 45.7637 88.2983 45.7263 87.2303 45.3641C86.1622 45.0019 85.2255 44.3311 84.5386 43.4365C83.8518 42.5419 83.4456 41.4638 83.3715 40.3384C83.2974 39.213 83.5587 38.0909 84.1223 37.114C84.6858 36.1371 85.5265 35.3493 86.5378 34.8501C87.5492 34.3509 88.6858 34.1629 89.804 34.3097C90.9223 34.4565 91.9718 34.9316 92.8201 35.6749C93.9568 36.6717 94.6512 38.0791 94.7506 39.5877C94.85 41.0963 94.3462 42.5827 93.3501 43.7199V43.7224Z" fill="white" stroke="#263238" stroke-width="0.5" stroke-miterlimit="10"/>
<path d="M87.3594 9.96922L65.186 28.4106L97.1148 66.8008L119.288 48.3594L87.3594 9.96922Z" fill="#C6965C" stroke="#263238" stroke-width="0.5" stroke-miterlimit="10"/>
<path d="M89.7726 17.2497C89.4215 17.5421 89.0161 17.7625 88.5797 17.8981C88.1433 18.0338 87.6844 18.0821 87.2294 18.0403C86.7743 17.9985 86.3319 17.8674 85.9275 17.6546C85.5231 17.4417 85.1647 17.1512 84.8726 16.7997C84.7827 16.6879 84.6992 16.5711 84.6226 16.4497L71.8926 27.0397C71.9974 27.1384 72.0968 27.2427 72.1901 27.3522C72.7805 28.0603 73.0657 28.9738 72.9832 29.892C72.9007 30.8102 72.4572 31.6582 71.7501 32.2497C71.6926 32.2947 71.6351 32.3347 71.5776 32.3772L94.3901 59.8072C94.4426 59.7597 94.4926 59.7097 94.5476 59.6622C95.2572 59.0723 96.1719 58.7882 97.0908 58.8726C98.0097 58.957 98.8574 59.4029 99.4476 60.1122C99.5376 60.224 99.6211 60.3409 99.6976 60.4622L112.43 49.8747C112.324 49.7773 112.225 49.6729 112.133 49.5622C111.84 49.211 111.62 48.8057 111.484 48.3693C111.349 47.9329 111.3 47.474 111.342 47.0189C111.384 46.5639 111.515 46.1215 111.728 45.7171C111.941 45.3127 112.231 44.9542 112.583 44.6622C112.694 44.5714 112.811 44.4879 112.933 44.4122L90.0851 16.9497C89.9879 17.0566 89.8835 17.1569 89.7726 17.2497ZM95.8851 42.7747C95.0182 43.4967 93.9567 43.9454 92.8347 44.0639C91.7127 44.1824 90.5809 43.9654 89.5822 43.4405C88.5836 42.9155 87.7632 42.1061 87.2247 41.1148C86.6862 40.1234 86.4539 38.9945 86.5571 37.8711C86.6604 36.7476 87.0945 35.68 87.8047 34.8034C88.5149 33.9268 89.4691 33.2805 90.5467 32.9463C91.6242 32.6121 92.7767 32.6051 93.8583 32.9261C94.9398 33.2472 95.9019 33.8818 96.6226 34.7497C97.5866 35.9122 98.0502 37.4095 97.912 38.9134C97.7737 40.4172 97.0449 41.8049 95.8851 42.7722V42.7747Z" fill="white" stroke="#263238" stroke-width="0.5" stroke-miterlimit="10"/>
<path d="M99.5375 8.22317L73.5986 20.8296L95.4249 65.7391L121.364 53.1327L99.5375 8.22317Z" fill="#C6965C" stroke="#263238" stroke-width="0.5" stroke-miterlimit="10"/>
<path d="M100.142 15.8722C99.3134 16.2731 98.3593 16.3289 97.4891 16.0276C96.6189 15.7263 95.9037 15.0924 95.5 14.2647C95.4391 14.1345 95.3857 14.001 95.34 13.8647L80.4375 21.1022C80.5165 21.222 80.5883 21.3464 80.6525 21.4747C81.0556 22.3046 81.1128 23.2606 80.8114 24.1325C80.5099 25.0045 79.8746 25.7211 79.045 26.1247C78.9775 26.1572 78.9125 26.1822 78.845 26.2097L94.44 58.2997C94.5025 58.2622 94.5625 58.2272 94.6275 58.1947C95.0385 57.9949 95.4848 57.8779 95.941 57.8507C96.3972 57.8234 96.8543 57.8864 97.2862 58.0359C97.7181 58.1854 98.1162 58.4186 98.4579 58.7221C98.7996 59.0256 99.0781 59.3935 99.2775 59.8047C99.3395 59.9339 99.3938 60.0666 99.44 60.2022L114.332 52.9647C114.253 52.845 114.182 52.7206 114.117 52.5922C113.715 51.762 113.659 50.806 113.961 49.9342C114.262 49.0624 114.898 48.346 115.727 47.9422C115.857 47.8791 115.991 47.8248 116.127 47.7797L100.517 15.6572C100.397 15.7363 100.272 15.808 100.142 15.8722ZM99.975 42.1222C98.9605 42.6149 97.8228 42.7957 96.7055 42.6418C95.5883 42.4879 94.5418 42.0062 93.6984 41.2576C92.8549 40.509 92.2524 39.5271 91.9669 38.436C91.6815 37.345 91.726 36.1938 92.0947 35.128C92.4635 34.0622 93.14 33.1297 94.0387 32.4484C94.9374 31.7671 96.018 31.3676 97.1437 31.3003C98.2695 31.2331 99.3899 31.5012 100.363 32.0706C101.337 32.6401 102.119 33.4855 102.612 34.4997C103.272 35.8599 103.364 37.4259 102.869 38.8541C102.375 40.2823 101.334 41.4559 99.975 42.1172V42.1222Z" fill="white" stroke="#263238" stroke-width="0.5" stroke-miterlimit="10"/>
<path d="M114.709 10.1962L86.2009 14.5586L93.7538 63.9166L122.262 59.5542L114.709 10.1962Z" fill="#C6965C" stroke="#263238" stroke-width="0.5" stroke-miterlimit="10"/>
<path d="M113.023 17.675C112.571 17.7443 112.11 17.7239 111.666 17.615C111.223 17.5061 110.805 17.3109 110.437 17.0404C110.068 16.7699 109.757 16.4295 109.52 16.0387C109.284 15.6478 109.127 15.2142 109.058 14.7625C109.036 14.6201 109.024 14.4765 109.02 14.3325L92.6526 16.8325C92.6932 16.9697 92.7257 17.1091 92.7501 17.25C92.8893 18.1624 92.6603 19.0926 92.1137 19.8362C91.567 20.5798 90.7474 21.0757 89.8351 21.215C89.7651 21.215 89.6926 21.23 89.6226 21.2375L95.0176 56.505C95.0876 56.4875 95.1576 56.4725 95.2301 56.46C96.142 56.3208 97.072 56.5494 97.8155 57.0955C98.559 57.6416 99.0552 58.4607 99.1951 59.3725C99.2165 59.5149 99.2282 59.6586 99.2301 59.8025L115.6 57.3025C115.559 57.1639 115.528 57.0228 115.505 56.88C115.366 55.9681 115.594 55.0381 116.141 54.2946C116.687 53.5511 117.506 53.0549 118.418 52.915C118.56 52.894 118.704 52.8814 118.848 52.8775L113.443 17.58C113.305 17.6211 113.165 17.6528 113.023 17.675ZM105.093 42.6925C103.978 42.863 102.837 42.699 101.816 42.2214C100.794 41.7438 99.9369 40.9739 99.3528 40.0092C98.7686 39.0445 98.4837 37.9282 98.5339 36.8015C98.5841 35.6748 98.9673 34.5883 99.635 33.6794C100.303 32.7705 101.225 32.08 102.285 31.6952C103.345 31.3104 104.496 31.2486 105.591 31.5176C106.686 31.7866 107.677 32.3743 108.438 33.2064C109.199 34.0385 109.697 35.0777 109.868 36.1925C109.981 36.9329 109.947 37.6883 109.769 38.4156C109.59 39.143 109.27 39.828 108.826 40.4316C108.383 41.0352 107.825 41.5455 107.184 41.9335C106.544 42.3214 105.833 42.5793 105.093 42.6925Z" fill="white" stroke="#263238" stroke-width="0.5" stroke-miterlimit="10"/>
<path d="M147.04 41.9048H65.925C64.2972 41.9048 62.9775 43.2244 62.9775 44.8523V113.255C62.9775 114.883 64.2972 116.202 65.925 116.202H147.04C148.668 116.202 149.988 114.883 149.988 113.255V44.8523C149.988 43.2244 148.668 41.9048 147.04 41.9048Z" fill="white" stroke="#263238" stroke-width="0.5" stroke-miterlimit="10"/>
<path d="M150 49.3973V44.8523C150 44.0706 149.69 43.3209 149.137 42.7681C148.584 42.2153 147.834 41.9048 147.053 41.9048H65.925C65.1433 41.9048 64.3936 42.2153 63.8408 42.7681C63.2881 43.3209 62.9775 44.0706 62.9775 44.8523V49.3973H150Z" fill="#666666" stroke="#263238" stroke-width="0.5" stroke-miterlimit="10"/>
<path d="M137.872 45.8649C137.873 45.6457 137.808 45.4314 137.687 45.2489C137.566 45.0665 137.393 44.9241 137.191 44.8399C136.988 44.7557 136.765 44.7334 136.55 44.7759C136.335 44.8183 136.138 44.9236 135.983 45.0784C135.828 45.2332 135.722 45.4305 135.679 45.6454C135.636 45.8603 135.658 46.0831 135.742 46.2856C135.825 46.4881 135.967 46.6613 136.149 46.7831C136.332 46.9049 136.546 46.9699 136.765 46.9699C137.058 46.9699 137.34 46.8535 137.547 46.6464C137.755 46.4392 137.872 46.1582 137.872 45.8649Z" fill="white" stroke="#263238" stroke-width="0.5" stroke-miterlimit="10"/>
<path d="M141.588 45.8649C141.588 45.6457 141.524 45.4314 141.402 45.2489C141.281 45.0665 141.108 44.9241 140.906 44.8399C140.703 44.7557 140.481 44.7334 140.266 44.7759C140.051 44.8183 139.853 44.9236 139.698 45.0784C139.543 45.2332 139.437 45.4305 139.394 45.6454C139.351 45.8603 139.373 46.0831 139.457 46.2856C139.54 46.4881 139.682 46.6613 139.864 46.7831C140.047 46.9049 140.261 46.9699 140.48 46.9699C140.773 46.9699 141.055 46.8535 141.262 46.6464C141.47 46.4392 141.587 46.1582 141.588 45.8649Z" fill="white" stroke="#263238" stroke-width="0.5" stroke-miterlimit="10"/>
<path d="M145.303 45.8649C145.303 45.6457 145.239 45.4314 145.117 45.2489C144.996 45.0665 144.823 44.9241 144.621 44.8399C144.418 44.7557 144.196 44.7334 143.981 44.7759C143.766 44.8183 143.568 44.9236 143.413 45.0784C143.258 45.2332 143.152 45.4305 143.109 45.6454C143.066 45.8603 143.088 46.0831 143.172 46.2856C143.255 46.4881 143.397 46.6613 143.58 46.7831C143.762 46.9049 143.976 46.9699 144.195 46.9699C144.488 46.9699 144.77 46.8535 144.977 46.6464C145.185 46.4392 145.302 46.1582 145.303 45.8649Z" fill="#C6965C" stroke="#263238" stroke-width="0.5" stroke-miterlimit="10"/>
<path d="M144.918 94.8027H126.918C126.272 89.7835 123.749 85.1951 119.858 81.9603L132.558 69.2603C139.83 75.8524 144.261 85.0092 144.918 94.8027Z" fill="#C6965C"/>
<path d="M94.1727 81.9575C90.2827 85.1941 87.7621 89.7833 87.1177 94.8025H69.1177C69.771 85.0057 74.2013 75.845 81.4752 69.25L94.1727 81.9575Z" fill="#C6965C"/>
<path opacity="0.9" d="M94.1727 81.9575C90.2827 85.1941 87.7621 89.7833 87.1177 94.8025H69.1177C69.771 85.0057 74.2013 75.845 81.4752 69.25L94.1727 81.9575Z" fill="white"/>
<path d="M107.018 59.3926V77.3101C102.323 77.3023 97.7754 78.9477 94.1726 81.9576L81.4751 69.2501C88.4617 62.8934 97.572 59.3776 107.018 59.3926Z" fill="#C6965C"/>
<path opacity="0.6" d="M107.018 59.3926V77.3101C102.323 77.3023 97.7754 78.9477 94.1726 81.9576L81.4751 69.2501C88.4617 62.8934 97.572 59.3776 107.018 59.3926Z" fill="white"/>
<path d="M132.56 69.2501L119.86 81.9501C116.259 78.9389 111.712 77.2925 107.018 77.3001V59.3926C116.463 59.3776 125.573 62.8934 132.56 69.2501Z" fill="#C6965C"/>
<path opacity="0.3" d="M132.56 69.2501L119.86 81.9501C116.259 78.9389 111.712 77.2925 107.018 77.3001V59.3926C116.463 59.3776 125.573 62.8934 132.56 69.2501Z" fill="white"/>
<path d="M144.918 94.8027H126.918C126.272 89.7835 123.749 85.1951 119.858 81.9603L132.558 69.2603C139.83 75.8524 144.261 85.0092 144.918 94.8027Z" stroke="#263238" stroke-miterlimit="10"/>
<path d="M94.1727 81.9575C90.2827 85.1941 87.7621 89.7833 87.1177 94.8025H69.1177C69.771 85.0057 74.2013 75.845 81.4752 69.25L94.1727 81.9575Z" stroke="#263238" stroke-miterlimit="10"/>
<path opacity="0.9" d="M94.1727 81.9575C90.2827 85.1941 87.7621 89.7833 87.1177 94.8025H69.1177C69.771 85.0057 74.2013 75.845 81.4752 69.25L94.1727 81.9575Z" stroke="#263238" stroke-miterlimit="10"/>
<path d="M107.018 59.3926V77.3101C102.323 77.3023 97.7754 78.9477 94.1726 81.9576L81.4751 69.2501C88.4617 62.8934 97.572 59.3776 107.018 59.3926Z" stroke="#263238" stroke-miterlimit="10"/>
<path opacity="0.6" d="M107.018 59.3926V77.3101C102.323 77.3023 97.7754 78.9477 94.1726 81.9576L81.4751 69.2501C88.4617 62.8934 97.572 59.3776 107.018 59.3926Z" stroke="#263238" stroke-miterlimit="10"/>
<path d="M132.56 69.2501L119.86 81.9501C116.259 78.9389 111.712 77.2925 107.018 77.3001V59.3926C116.463 59.3776 125.573 62.8934 132.56 69.2501Z" stroke="#263238" stroke-miterlimit="10"/>
<path opacity="0.3" d="M132.56 69.2501L119.86 81.9501C116.259 78.9389 111.712 77.2925 107.018 77.3001V59.3926C116.463 59.3776 125.573 62.8934 132.56 69.2501Z" stroke="#263238" stroke-miterlimit="10"/>
<path d="M110.555 92.6374L117.953 84.3174L107.545 88.9474C106.861 88.8595 106.166 88.9787 105.551 89.2895C104.935 89.6004 104.427 90.0886 104.091 90.6912C103.756 91.2938 103.609 91.9831 103.669 92.6702C103.729 93.3572 103.994 94.0105 104.429 94.5456C104.864 95.0808 105.449 95.4732 106.109 95.6724C106.77 95.8715 107.475 95.8681 108.133 95.6627C108.791 95.4573 109.373 95.0593 109.803 94.52C110.233 93.9807 110.491 93.325 110.545 92.6374H110.555Z" fill="#263238" stroke="#263238" stroke-miterlimit="10"/>
<path d="M108.068 93.5249C108.299 93.3382 108.469 93.0869 108.557 92.8031C108.645 92.5194 108.647 92.2158 108.563 91.931C108.478 91.6462 108.311 91.3929 108.082 91.2033C107.853 91.0138 107.573 90.8964 107.277 90.8662C106.982 90.836 106.684 90.8942 106.421 91.0335C106.159 91.1729 105.944 91.387 105.803 91.6488C105.663 91.9106 105.603 92.2083 105.632 92.504C105.661 92.7997 105.777 93.0802 105.965 93.3099C106.216 93.616 106.578 93.8103 106.972 93.8506C107.366 93.8909 107.76 93.7738 108.068 93.5249Z" fill="white" stroke="#263238" stroke-miterlimit="10"/>
<path d="M127.103 87.1703V84.3203H128.353V84.7228H127.69V85.4728H128.19V85.8778H127.69V86.7728H128.36V87.1653L127.103 87.1703Z" fill="#263238"/>
<path d="M128.458 87.1703L129.02 85.6478L128.478 84.3203H129.028L129.365 85.1403L129.65 84.3203H130.15L129.628 85.7803L130.198 87.1703H129.658L129.283 86.2728L128.958 87.1703H128.458Z" fill="#263238"/>
<path d="M131.178 87.2103C131.003 87.2192 130.829 87.1775 130.678 87.0903C130.559 87.0114 130.47 86.894 130.428 86.7578C130.375 86.5965 130.349 86.4275 130.353 86.2578V85.2503C130.35 85.0806 130.375 84.9117 130.428 84.7503C130.47 84.6154 130.559 84.4996 130.678 84.4228C130.83 84.3377 131.003 84.297 131.178 84.3053C131.344 84.2975 131.509 84.3328 131.658 84.4078C131.772 84.4716 131.86 84.5733 131.908 84.6953C131.958 84.8346 131.983 84.9821 131.98 85.1303V85.3678H131.418V85.1003C131.422 85.0386 131.422 84.9769 131.418 84.9153C131.413 84.8635 131.392 84.8145 131.358 84.7753C131.336 84.755 131.31 84.7397 131.282 84.7302C131.254 84.7207 131.225 84.7173 131.195 84.7203C131.165 84.7176 131.134 84.7213 131.105 84.7312C131.076 84.7411 131.05 84.757 131.028 84.7777C130.991 84.8182 130.967 84.8687 130.96 84.9228C130.95 84.9889 130.945 85.0558 130.945 85.1228V86.4178C130.945 86.4874 130.951 86.5569 130.965 86.6253C130.974 86.6776 130.999 86.7258 131.038 86.7628C131.083 86.7972 131.139 86.8141 131.195 86.8103C131.224 86.8133 131.254 86.81 131.281 86.8005C131.309 86.791 131.334 86.7756 131.355 86.7553C131.39 86.7146 131.411 86.6638 131.415 86.6103C131.419 86.5461 131.419 86.4819 131.415 86.4178V86.1378H131.978V86.3753C131.981 86.5249 131.957 86.674 131.908 86.8153C131.861 86.9416 131.773 87.0482 131.658 87.1178C131.509 87.1929 131.343 87.225 131.178 87.2103Z" fill="#263238"/>
<path d="M132.33 87.1703V84.3203H133.58V84.7228H132.918V85.4728H133.418V85.8778H132.918V86.7728H133.588V87.1653L132.33 87.1703Z" fill="#263238"/>
<path d="M133.87 87.1703V84.3203H134.453V86.7778H135.12V87.1703H133.87Z" fill="#263238"/>
<path d="M135.373 87.1703V84.3203H135.953V86.7778H136.623V87.1703H135.373Z" fill="#263238"/>
<path d="M136.875 87.1703V84.3203H138.125V84.7228H137.463V85.4728H137.963V85.8778H137.463V86.7728H138.133V87.1653L136.875 87.1703Z" fill="#263238"/>
<path d="M138.415 87.1703V84.3203H138.82L139.453 85.8053V84.3203H139.933V87.1703H139.545L138.913 85.5953V87.1703H138.415Z" fill="#263238"/>
<path d="M140.633 87.1699V84.7499H140.193V84.3174H141.648V84.7499H141.215V87.1674L140.633 87.1699Z" fill="#263238"/>
<path d="M77.2903 87.1701V84.3201H78.1928C78.3391 84.3137 78.4843 84.3474 78.6128 84.4176C78.7245 84.4811 78.8123 84.5795 78.8628 84.6976C78.9191 84.8382 78.9463 84.9887 78.9428 85.1401C78.9517 85.3066 78.9154 85.4725 78.8378 85.6201C78.7755 85.7337 78.6756 85.8221 78.5553 85.8701C78.4239 85.9213 78.2837 85.946 78.1428 85.9426H77.8928V87.1776L77.2903 87.1701ZM77.8703 85.5276H78.0728C78.141 85.5316 78.209 85.5178 78.2703 85.4876C78.3168 85.4579 78.35 85.4113 78.3628 85.3576C78.3805 85.284 78.3889 85.2084 78.3878 85.1326C78.3885 85.0596 78.3818 84.9867 78.3678 84.9151C78.3568 84.86 78.3256 84.8109 78.2803 84.7776C78.2168 84.7406 78.1435 84.724 78.0703 84.7301H77.8703V85.5276Z" fill="#263238"/>
<path d="M80.0252 87.2102C79.8514 87.2196 79.6783 87.1806 79.5252 87.0977C79.4039 87.0228 79.3114 86.9092 79.2627 86.7752C79.2066 86.6146 79.1795 86.4453 79.1827 86.2752V85.2127C79.1788 85.0425 79.206 84.8731 79.2627 84.7127C79.3102 84.5793 79.4032 84.4669 79.5252 84.3952C79.6816 84.3214 79.8524 84.2832 80.0252 84.2832C80.1981 84.2832 80.3689 84.3214 80.5252 84.3952C80.6467 84.4664 80.7396 84.5778 80.7877 84.7102C80.8445 84.8706 80.8716 85.04 80.8677 85.2102V86.2727C80.871 86.4428 80.8439 86.6121 80.7877 86.7727C80.7391 86.9067 80.6466 87.0203 80.5252 87.0952C80.3721 87.1781 80.1993 87.2179 80.0252 87.2102ZM80.0252 86.7902C80.0853 86.7942 80.1447 86.7764 80.1927 86.7402C80.2291 86.7022 80.2534 86.6544 80.2627 86.6027C80.2739 86.5416 80.2797 86.4797 80.2802 86.4177V85.0702C80.2799 85.0089 80.274 84.9478 80.2627 84.8877C80.254 84.8365 80.2295 84.7893 80.1927 84.7527C80.1458 84.7142 80.0858 84.6954 80.0252 84.7002C79.9968 84.698 79.9683 84.7016 79.9412 84.7106C79.9142 84.7196 79.8892 84.7339 79.8677 84.7527C79.831 84.7893 79.8065 84.8365 79.7977 84.8877C79.7852 84.9477 79.7794 85.0089 79.7802 85.0702V86.4177C79.78 86.4796 79.785 86.5415 79.7952 86.6027C79.8035 86.6547 79.828 86.7029 79.8652 86.7402C79.9103 86.7766 79.9675 86.7945 80.0252 86.7902Z" fill="#263238"/>
<path d="M82.0528 87.2099C81.8789 87.2192 81.7059 87.1802 81.5528 87.0974C81.4365 87.0201 81.3487 86.9068 81.3028 86.7749C81.2454 86.6146 81.2183 86.4451 81.2228 86.2749V85.2124C81.2176 85.0422 81.2448 84.8725 81.3028 84.7124C81.3474 84.5811 81.4357 84.4691 81.5528 84.3949C81.7066 84.3142 81.8793 84.2763 82.0528 84.2849C82.2266 84.2761 82.3995 84.315 82.5528 84.3974C82.6756 84.4677 82.7695 84.5793 82.8178 84.7124C82.8737 84.873 82.8999 85.0424 82.8953 85.2124V86.2749C82.8993 86.4448 82.873 86.6141 82.8178 86.7749C82.769 86.9096 82.6755 87.0234 82.5528 87.0974C82.3995 87.1798 82.2266 87.2187 82.0528 87.2099ZM82.0528 86.7899C82.112 86.7933 82.1705 86.7756 82.2178 86.7399C82.2541 86.7019 82.2785 86.6541 82.2878 86.6024C82.3001 86.5415 82.306 86.4795 82.3053 86.4174V85.0699C82.3061 85.0086 82.3003 84.9474 82.2878 84.8874C82.279 84.8362 82.2546 84.789 82.2178 84.7524C82.1705 84.7182 82.1136 84.6998 82.0553 84.6998C81.9969 84.6998 81.9401 84.7182 81.8928 84.7524C81.856 84.789 81.8315 84.8362 81.8228 84.8874C81.8115 84.9476 81.8057 85.0087 81.8053 85.0699V86.4174C81.8046 86.4795 81.8104 86.5415 81.8228 86.6024C81.8303 86.6542 81.854 86.7023 81.8903 86.7399C81.9363 86.7763 81.9943 86.7941 82.0528 86.7899Z" fill="#263238"/>
<path d="M83.2827 87.1703V84.3203H84.0327C84.2017 84.3163 84.3703 84.3382 84.5327 84.3853C84.6627 84.4228 84.7752 84.5052 84.8502 84.6178C84.9314 84.7551 84.9697 84.9135 84.9602 85.0728C84.9615 85.1777 84.9514 85.2825 84.9302 85.3853C84.9128 85.4703 84.8769 85.5506 84.8252 85.6203C84.7701 85.6918 84.6967 85.7471 84.6127 85.7803L85.0077 87.1703H84.4127L84.0852 85.8803H83.8802V87.1703H83.2827ZM83.8627 85.5353H84.0327C84.107 85.5423 84.1819 85.5302 84.2502 85.5003C84.3033 85.4698 84.3433 85.4209 84.3627 85.3628C84.3874 85.2887 84.3992 85.2109 84.3977 85.1328C84.404 85.027 84.3788 84.9217 84.3252 84.8303C84.2919 84.7926 84.2499 84.7635 84.2029 84.7457C84.1558 84.7278 84.1052 84.7217 84.0552 84.7278H83.8577L83.8627 85.5353Z" fill="#263238"/>
<path d="M113.913 71.1904C113.752 71.1995 113.592 71.1565 113.458 71.0679C113.338 70.9842 113.25 70.8627 113.208 70.7229C113.157 70.5552 113.132 70.3806 113.135 70.2054V69.2504C113.131 69.0716 113.157 68.8934 113.21 68.7229C113.251 68.5832 113.34 68.4622 113.46 68.3804C113.612 68.2935 113.785 68.2519 113.96 68.2604C114.127 68.2526 114.293 68.2879 114.443 68.3629C114.556 68.4272 114.645 68.5287 114.693 68.6504C114.748 68.7921 114.774 68.9433 114.77 69.0954V69.2604H114.205V69.0604C114.206 68.9934 114.201 68.9265 114.19 68.8604C114.188 68.8329 114.181 68.8061 114.168 68.7816C114.156 68.7572 114.138 68.7356 114.117 68.7182C114.095 68.7009 114.071 68.6881 114.044 68.6807C114.018 68.6733 113.99 68.6715 113.963 68.6754C113.932 68.6725 113.9 68.6763 113.871 68.6867C113.842 68.697 113.815 68.7136 113.793 68.7354C113.756 68.7789 113.733 68.8317 113.725 68.8879C113.717 68.9542 113.713 69.021 113.713 69.0879V70.3504C113.712 70.4225 113.719 70.4945 113.733 70.5654C113.743 70.6217 113.771 70.6733 113.813 70.7129C113.86 70.75 113.92 70.7687 113.98 70.7654C114.011 70.7676 114.041 70.7637 114.07 70.7538C114.099 70.7439 114.125 70.7283 114.148 70.7078C114.19 70.6669 114.219 70.6136 114.23 70.5554C114.246 70.4831 114.254 70.4093 114.253 70.3354V70.0329H114V69.6829H114.803V71.1453H114.423L114.388 70.8953C114.352 70.9815 114.293 71.0559 114.218 71.1104C114.128 71.1704 114.02 71.1986 113.913 71.1904Z" fill="#263238"/>
<path d="M116 71.1851C115.826 71.1964 115.653 71.1574 115.5 71.0726C115.379 70.9993 115.286 70.8863 115.238 70.7526C115.182 70.592 115.155 70.4227 115.158 70.2526V69.1901C115.154 69.02 115.181 68.8506 115.238 68.6901C115.286 68.5578 115.379 68.4464 115.5 68.3751C115.654 68.2936 115.827 68.2556 116 68.2651C116.174 68.2572 116.347 68.2961 116.5 68.3776C116.617 68.451 116.705 68.5622 116.75 68.6926C116.807 68.853 116.834 69.0224 116.83 69.1926V70.2501C116.834 70.4202 116.806 70.5895 116.75 70.7501C116.705 70.8819 116.617 70.9947 116.5 71.0701C116.347 71.1537 116.174 71.1935 116 71.1851ZM116 70.7676C116.059 70.771 116.118 70.7533 116.165 70.7176C116.203 70.6803 116.227 70.6322 116.235 70.5801C116.248 70.5192 116.254 70.4572 116.253 70.3951V69.0476C116.254 68.9863 116.248 68.9251 116.235 68.8651C116.228 68.8136 116.203 68.7661 116.165 68.7301C116.143 68.7109 116.116 68.6964 116.088 68.6873C116.06 68.6783 116.03 68.675 116 68.6776C115.972 68.6755 115.943 68.679 115.916 68.688C115.889 68.6971 115.864 68.7114 115.843 68.7301C115.805 68.7661 115.781 68.8136 115.773 68.8651C115.76 68.9251 115.754 68.9863 115.755 69.0476V70.3951C115.755 70.4571 115.76 70.519 115.77 70.5801C115.778 70.6319 115.801 70.68 115.838 70.7176C115.884 70.754 115.942 70.7718 116 70.7676Z" fill="#263238"/>
<path d="M118.018 71.1851C117.844 71.1958 117.67 71.1567 117.518 71.0726C117.401 70.9972 117.313 70.8844 117.268 70.7526C117.212 70.5919 117.186 70.4226 117.19 70.2526V69.1901C117.186 69.0202 117.212 68.8508 117.268 68.6901C117.313 68.5597 117.401 68.4486 117.518 68.3751C117.674 68.3014 117.845 68.2632 118.018 68.2632C118.191 68.2632 118.361 68.3014 118.518 68.3751C118.639 68.447 118.733 68.5581 118.783 68.6901C118.839 68.8507 118.865 69.0201 118.86 69.1901V70.2501C118.864 70.4201 118.838 70.5894 118.783 70.7501C118.733 70.8836 118.639 70.9964 118.518 71.0701C118.365 71.1543 118.192 71.1942 118.018 71.1851ZM118.018 70.7676C118.078 70.7717 118.137 70.7539 118.185 70.7176C118.221 70.6797 118.246 70.6319 118.255 70.5801C118.266 70.5191 118.272 70.4572 118.273 70.3951V69.0476C118.272 68.9864 118.266 68.9253 118.255 68.8651C118.246 68.814 118.222 68.7668 118.185 68.7301C118.138 68.6917 118.078 68.6728 118.018 68.6776C117.989 68.6755 117.961 68.6791 117.934 68.6881C117.907 68.6971 117.882 68.7114 117.86 68.7301C117.823 68.7668 117.799 68.814 117.79 68.8651C117.778 68.9251 117.772 68.9863 117.773 69.0476V70.3951C117.772 70.4571 117.777 70.519 117.788 70.5801C117.796 70.6322 117.82 70.6803 117.858 70.7176C117.903 70.7541 117.96 70.7719 118.018 70.7676Z" fill="#263238"/>
<path d="M119.25 71.1477V68.2977H119.948C120.14 68.2894 120.332 68.3217 120.51 68.3927C120.64 68.4484 120.743 68.5524 120.798 68.6827C120.858 68.8424 120.886 69.0121 120.883 69.1827V70.2202C120.888 70.3973 120.859 70.5738 120.798 70.7402C120.745 70.8723 120.644 70.9795 120.515 71.0402C120.34 71.1133 120.15 71.1466 119.96 71.1377L119.25 71.1477ZM119.83 70.7427H119.953C120.033 70.749 120.113 70.7316 120.183 70.6927C120.231 70.6554 120.262 70.6006 120.27 70.5402C120.284 70.4575 120.29 70.3739 120.288 70.2902V69.1152C120.291 69.0312 120.283 68.9472 120.265 68.8652C120.259 68.838 120.248 68.8123 120.232 68.7895C120.217 68.7668 120.196 68.7474 120.173 68.7327C120.103 68.7007 120.027 68.687 119.95 68.6927H119.83V70.7427Z" fill="#263238"/>
<path d="M92.0002 71.1479V68.2979H93.2027V68.6928H92.5752V69.4629H93.1027V69.8679H92.5752V71.1479H92.0002Z" fill="#263238"/>
<path d="M93.2502 71.1479L93.8002 68.2979H94.4452L94.9927 71.1479H94.4552L94.3527 70.5229H93.9027L93.7952 71.1479H93.2502ZM93.9552 70.1654H94.2977L94.1252 69.0154L93.9552 70.1654Z" fill="#263238"/>
<path d="M95.2727 71.1479V68.2979H95.8502V71.1479H95.2727Z" fill="#263238"/>
<path d="M96.2852 71.1477V68.2977H97.0352C97.2041 68.2942 97.3727 68.3161 97.5352 68.3627C97.6634 68.4011 97.7746 68.4823 97.8502 68.5927C97.9319 68.7308 97.971 68.89 97.9627 69.0502C97.9639 69.1552 97.9539 69.26 97.9327 69.3627C97.9139 69.4478 97.8772 69.5279 97.8251 69.5977C97.7701 69.6693 97.6966 69.7246 97.6127 69.7577L98.0077 71.1477H97.4127L97.0852 69.8577H96.8827V71.1477H96.2852ZM96.8677 69.5127H97.0352C97.1122 69.517 97.1891 69.5006 97.2577 69.4652C97.3117 69.4352 97.3526 69.3862 97.3727 69.3277C97.3954 69.2532 97.4063 69.1756 97.4052 69.0977C97.4115 68.9919 97.3862 68.8867 97.3326 68.7952C97.2993 68.7575 97.2574 68.7285 97.2103 68.7106C97.1633 68.6928 97.1126 68.6866 97.0627 68.6927H96.8677V69.5127Z" fill="#263238"/>
<path d="M45.3325 68.5654C45.3325 68.5654 44.44 81.6154 44.44 82.0329C44.44 82.4504 44.4525 84.2454 44.215 84.8429C43.9775 85.4404 42.89 85.6079 42.65 85.6679C42.41 85.7279 42.055 85.4304 42.055 85.4304C42.055 85.4304 41.7575 85.4904 41.6975 84.9529C41.6375 84.4154 41.3425 83.6679 41.2225 82.7729C41.1025 81.8779 42.115 80.9604 42.235 80.5429C42.3181 80.2591 42.4174 79.9803 42.5325 79.7079L41.935 68.7504L45.3325 68.5654Z" fill="white" stroke="#263238" stroke-width="0.5" stroke-miterlimit="10"/>
<path d="M42.0549 85.4304L42.258 83.6229L42.0725 83.2529" fill="white"/>
<path d="M42.0549 85.4304L42.258 83.6229L42.0725 83.2529" stroke="#263238" stroke-width="0.5" stroke-miterlimit="10"/>
<path d="M28.4999 110.38C28.4999 110.38 27.8749 111.978 27.5974 112.603C27.3199 113.228 26.6924 114.13 26.5549 114.548C26.4174 114.965 25.9299 115.798 26.3474 116.145C26.7649 116.493 31.2074 116.145 31.2074 116.145C31.2074 116.145 31.9024 116.075 32.1099 115.588C32.3174 115.1 32.1099 113.298 32.1099 113.02C32.1099 112.743 32.0399 110.798 32.0399 110.798L28.4999 110.38Z" fill="white" stroke="#263238" stroke-width="0.5" stroke-miterlimit="10"/>
<path d="M32.115 115.588C32.1987 115.285 32.23 114.971 32.2075 114.658C31.8515 114.919 31.44 115.096 31.005 115.173H26.3125C26.18 115.54 26.0975 115.923 26.3525 116.145C26.7675 116.493 31.2125 116.145 31.2125 116.145C31.2125 116.145 31.9075 116.075 32.115 115.588Z" fill="white" stroke="#263238" stroke-width="0.5" stroke-miterlimit="10"/>
<path d="M41.4649 110.38C41.4649 110.38 42.0899 111.978 42.3674 112.603C42.6449 113.228 43.2699 114.13 43.4099 114.548C43.5499 114.965 44.0349 115.798 43.6174 116.145C43.1999 116.493 38.7574 116.145 38.7574 116.145C38.7574 116.145 38.0624 116.075 37.8549 115.588C37.6474 115.1 37.8549 113.298 37.8549 113.02C37.8549 112.743 37.9224 110.798 37.9224 110.798L41.4649 110.38Z" fill="white" stroke="#263238" stroke-width="0.5" stroke-miterlimit="10"/>
<path d="M37.8549 115.588C37.7712 115.285 37.74 114.971 37.7624 114.658C38.1184 114.919 38.5299 115.096 38.9649 115.173H43.6574C43.7899 115.54 43.8724 115.923 43.6174 116.145C43.2024 116.493 38.7574 116.145 38.7574 116.145C38.7574 116.145 38.0624 116.075 37.8549 115.588Z" fill="white" stroke="#263238" stroke-width="0.5" stroke-miterlimit="10"/>
<path d="M27.975 71.6775L28.3325 93.7275C27.9061 95.2186 27.8047 96.7838 28.035 98.3175C28.4525 100.64 28.63 108.507 28.63 108.507C28.63 108.507 28.035 108.925 28.035 109.342C28.035 109.76 28.095 110.89 28.095 110.89C28.095 110.89 29.345 111.488 30.18 111.605C31.015 111.723 32.8025 111.488 32.8025 111.488L33.04 109.103L32.9825 107.077L33.875 89.3775L34.3525 80.02L35.245 79.96L36.495 89.3775L37.495 106.838L37.675 111.368C38.1655 111.58 38.6908 111.702 39.225 111.725C40.1775 111.785 41.845 111.19 41.845 111.19C41.845 111.19 42.095 109.64 42.145 109.223C42.195 108.805 41.6675 106.957 41.6675 106.957L42.025 94.265L41.845 91.515L40.8475 71.5L27.975 71.6775Z" fill="#263238" stroke="#263238" stroke-width="0.5" stroke-miterlimit="10"/>
<path d="M33.5775 47.3029L30.6575 48.8029L31.3725 71.9254H38.0475L38.225 49.6379C38.225 49.6379 34.71 47.1254 33.5775 47.3029Z" fill="#C6965C" stroke="#263238" stroke-width="0.5" stroke-miterlimit="10"/>
<path d="M36.185 48.1104C36.185 48.1104 43.28 51.6479 43.2325 51.8929C43.185 52.1379 45.8075 65.0004 45.8075 65.0004L45.6125 67.3953L41.705 67.4428L41.265 65.7829L41.6225 75.2579L36.3025 75.0079C36.3025 75.0079 35.8625 63.3829 36.4975 57.0829C37.1325 50.7829 36.185 48.1104 36.185 48.1104Z" fill="#BDBDBD" stroke="#263238" stroke-width="0.5" stroke-miterlimit="10"/>
<path d="M46.1499 66.5002C46.1499 66.5002 45.8999 69.1877 45.6499 69.2852C45.3999 69.3827 42.3399 69.5002 41.9999 69.2502C41.6599 69.0002 41.4149 66.7102 41.5599 66.4677C41.7049 66.2252 45.7124 66.3202 45.7124 66.3202C45.7124 66.3202 46.1499 66.1202 46.1499 66.5002Z" fill="#BDBDBD" stroke="#263238" stroke-width="0.5" stroke-miterlimit="10"/>
<path d="M41.265 65.7779L40.5325 56.3179" stroke="#263238" stroke-width="0.5" stroke-miterlimit="10"/>
<path d="M41.9624 52.4302C41.6298 53.3956 41.2331 54.3377 40.7749 55.2502" stroke="#263238" stroke-width="0.5" stroke-miterlimit="10"/>
<path d="M36.1699 64.1279C36.2024 61.6029 36.2974 59.0729 36.4974 57.0779C37.1324 50.7754 36.1849 48.1104 36.1849 48.1104C36.1849 48.1104 36.9349 48.4553 37.9974 48.9478L38.9974 52.5479L37.6624 53.3379L38.6399 55.2904L36.1699 64.1279Z" fill="#BDBDBD" stroke="#263238" stroke-width="0.5" stroke-miterlimit="10"/>
<path d="M31.9524 42.8853L31.4149 48.1103C31.4149 48.1103 31.3174 52.6528 34.2974 52.8478C37.2774 53.0428 36.4449 48.8928 36.3974 47.8678C36.3499 46.8428 36.3974 45.5703 36.3974 45.5703L31.9524 42.8853Z" fill="white" stroke="#263238" stroke-width="0.5" stroke-miterlimit="10"/>
<path d="M33.5149 45.9805L36.3899 49.063L36.5274 46.598L33.5149 45.9805Z" fill="#263238" stroke="#263238" stroke-width="0.5" stroke-miterlimit="10"/>
<path d="M38.7224 37.4852C39.0597 37.0365 39.2571 36.4982 39.2899 35.9377C39.2943 35.4719 39.1517 35.0165 38.8824 34.6363C38.6131 34.2562 38.2308 33.9706 37.7899 33.8202C36.9124 33.5102 31.6999 33.7177 30.7199 34.2352C29.7399 34.7527 29.3249 36.2477 29.5324 37.3302C29.7399 38.4127 29.7374 40.8302 29.9974 41.2002C30.2574 41.5702 30.9774 42.8002 31.4424 42.5952C31.9074 42.3902 32.7324 42.0277 32.8349 41.6152C32.9374 41.2027 32.9374 40.6327 33.0424 40.3652C33.1474 40.0977 34.1249 39.2827 34.1774 38.7127C34.2299 38.1427 33.6599 37.7852 34.1249 37.4752C34.5899 37.1652 36.0349 37.5777 36.7574 37.6827C37.4799 37.7877 38.7224 37.4852 38.7224 37.4852Z" fill="#263238" stroke="#263238" stroke-width="0.5" stroke-miterlimit="10"/>
<path d="M31.2924 41.9754C31.2924 41.9754 30.5174 40.3754 30.0024 40.6329C29.4874 40.8904 29.5899 42.3829 30.1049 43.1104C30.2442 43.3184 30.4293 43.4916 30.6459 43.6169C30.8626 43.7421 31.1052 43.8161 31.3549 43.8329C31.3549 43.8329 32.4924 45.6404 32.8549 45.8329C33.2174 46.0254 36.4824 47.5004 37.0499 47.5004C37.3281 47.501 37.6011 47.4241 37.8382 47.2784C38.0753 47.1327 38.2672 46.9239 38.3924 46.6754C38.6424 46.1579 39.2399 42.5454 39.2399 41.7704C39.2399 40.9954 38.9899 40.1729 38.9899 39.9654C38.9899 39.7579 38.9899 38.7154 38.9374 38.3129C38.8849 37.9104 38.5749 36.6629 38.5249 36.5079C38.4749 36.3529 37.8024 37.0229 37.1824 36.9729C36.5624 36.9229 33.6224 36.1979 33.4149 36.3004C33.2074 36.4029 32.2274 37.4354 32.3324 37.7454C32.4374 38.0554 33.5699 38.6754 33.5699 38.8804C33.5699 39.0854 31.9699 40.2229 31.9699 40.2229C31.9699 40.2229 32.4349 41.2554 32.1774 41.4729C31.8946 41.6611 31.5989 41.829 31.2924 41.9754Z" fill="white" stroke="#263238" stroke-width="0.5" stroke-miterlimit="10"/>
<path d="M37.8225 39.4604L37.7475 40.853L38.325 43.2854L37.1675 43.3629" stroke="#263238" stroke-width="0.5" stroke-miterlimit="10"/>
<path d="M37.36 44.5226C37.36 44.5226 36.625 44.8326 35.4675 43.8276" stroke="#263238" stroke-width="0.5" stroke-miterlimit="10"/>
<path d="M35.6974 40.9302C35.6974 41.2077 35.5424 41.4302 35.3499 41.4302C35.1574 41.4302 35.0024 41.2077 35.0024 40.9302C35.0024 40.6527 35.1574 40.4302 35.3499 40.4302C35.5424 40.4302 35.6974 40.6527 35.6974 40.9302Z" fill="#263238"/>
<path d="M38.905 40.6201C38.905 40.8976 38.75 41.1201 38.5575 41.1201C38.365 41.1201 38.21 40.8951 38.21 40.6201C38.21 40.3451 38.365 40.1201 38.5575 40.1201C38.75 40.1201 38.905 40.3426 38.905 40.6201Z" fill="#263238"/>
<path d="M34.27 40.0002C34.27 40.0002 34.7325 39.5352 35.97 39.6127" stroke="#263238" stroke-width="0.5" stroke-miterlimit="10"/>
<path d="M38.1323 39.3828C38.3553 39.293 38.6044 39.293 38.8273 39.3828" stroke="#263238" stroke-width="0.5" stroke-miterlimit="10"/>
<path d="M23.03 68.8779C23.03 68.8779 23.9225 81.9279 23.9225 82.3454C23.9225 82.7629 23.9225 84.5579 24.1475 85.1529C24.3725 85.7479 25.4725 85.9204 25.71 85.9804C25.9475 86.0404 26.3075 85.7429 26.3075 85.7429C26.3075 85.7429 26.605 85.8029 26.665 85.2654C26.725 84.7279 27.02 83.9804 27.1375 83.0854C27.255 82.1904 26.2475 81.2729 26.1375 80.8554C26.0545 80.5716 25.9551 80.2928 25.84 80.0204L26.435 69.0554L23.03 68.8779Z" fill="white" stroke="#263238" stroke-width="0.5" stroke-miterlimit="10"/>
<path d="M26.308 85.7429L26.105 83.9354L26.2905 83.5654" fill="white"/>
<path d="M26.308 85.7429L26.105 83.9354L26.2905 83.5654" stroke="#263238" stroke-width="0.5" stroke-miterlimit="10"/>
<path d="M31.415 48.1104C31.415 48.1104 22.77 52.0679 22.8175 52.3129C22.865 52.5579 22.72 65.3129 22.72 65.3129L22.915 67.7054L26.8225 67.7529L27.2625 66.0928L27.3125 75.3253L32.88 75.1778C32.88 75.1778 33.32 63.5528 32.685 57.2528C32.05 50.9528 31.415 48.1104 31.415 48.1104Z" fill="#BDBDBD" stroke="#263238" stroke-width="0.5" stroke-miterlimit="10"/>
<path d="M22.3774 66.818C22.3774 66.818 22.6274 69.5055 22.8774 69.603C23.1274 69.7005 26.1974 69.798 26.5399 69.553C26.8824 69.308 27.1274 67.013 26.9799 66.7705C26.8324 66.528 22.8274 66.623 22.8274 66.623C22.8274 66.623 22.3774 66.428 22.3774 66.818Z" fill="#BDBDBD" stroke="#263238" stroke-width="0.5" stroke-miterlimit="10"/>
<path d="M27.2629 66.0854L27.0674 56.3179" stroke="#263238" stroke-width="0.5" stroke-miterlimit="10"/>
<path d="M24.0874 52.8477C24.0874 52.8477 26.1399 53.9227 26.8224 55.2427" stroke="#263238" stroke-width="0.5" stroke-miterlimit="10"/>
<path d="M26.9199 53.7275C26.9199 53.7275 27.7999 54.4125 27.7024 56.3175" stroke="#263238" stroke-width="0.5" stroke-miterlimit="10"/>
<path d="M33.0124 64.2953C32.9799 61.7703 32.8849 59.2403 32.6849 57.2453C32.0499 50.9429 31.4149 48.1104 31.4149 48.1104C31.4149 48.1104 30.6649 48.4553 29.5999 48.9478L29.5574 52.5004L30.8774 53.3304L29.8999 55.2829L33.0124 64.2953Z" fill="#BDBDBD" stroke="#263238" stroke-width="0.5" stroke-miterlimit="10"/>
<path d="M53.68 42.595C53.68 42.595 54.665 42.345 54.84 41.3975C55.015 40.45 54.4525 38.5475 53.185 37.6325C51.9175 36.7175 48.75 35.9425 45.865 37.28C42.98 38.6175 42.8025 43.37 42.7325 45C42.6625 46.63 42.415 50.9125 42.415 50.9125H54.7C54.7 50.9125 54.735 48.9775 54.3125 47.64C53.89 46.3025 53.6075 45.39 53.6425 45.245C53.6775 45.1 53.3275 43.0525 53.68 42.595Z" fill="#263238" stroke="#263238" stroke-width="0.5" stroke-miterlimit="10"/>
<path d="M43.2824 73.7823C43.2824 73.7823 42.3949 78.0198 43.2824 83.8973C44.1699 89.7748 44.9224 93.3973 44.9224 93.3973C44.9224 93.3973 44.1724 97.1473 44.6499 99.3423C45.1274 101.537 46.2224 111.577 46.2224 111.577C46.2224 111.577 45.0599 115.472 45.0599 115.745C45.0599 116.017 45.1974 116.36 45.4699 116.292C45.7424 116.225 48.6824 116.292 48.6824 116.292C48.6824 116.292 49.0924 116.155 49.1599 115.405C49.2274 114.655 48.5449 110.962 48.5449 110.962L50.3224 96.0623L51.4149 111.44C51.4149 111.44 51.2799 116.087 51.4849 116.087C51.6899 116.087 51.8249 116.225 52.0999 116.225C52.3749 116.225 57.6349 116.36 58.0449 116.225C58.4549 116.09 58.0449 115.197 57.8399 115.197C57.6349 115.197 55.3799 114.172 55.1049 113.832C54.8299 113.492 53.8074 111.645 53.8749 111.44C53.9424 111.235 55.3749 99.9598 55.5849 97.9773C55.7949 95.9948 55.8574 93.2498 55.8574 93.2498C56.6437 89.4855 57.1691 85.6715 57.4299 81.8348C57.9074 75.2073 57.0874 73.3623 57.0874 73.3623L43.2824 73.7823Z" fill="white" stroke="#263238" stroke-width="0.5" stroke-miterlimit="10"/>
<path d="M43.2824 73.7825C43.2824 73.7825 42.3949 78.02 43.2824 83.8975C44.1699 89.775 44.9224 93.3975 44.9224 93.3975C44.9224 93.3975 44.1724 97.1475 44.6499 99.345C44.9649 100.785 45.5474 105.632 45.8999 108.775H48.7974L50.3149 96.0625L51.2174 108.775H54.2499C54.7074 105.26 55.4499 99.36 55.5924 97.9775C55.7974 95.995 55.8649 93.2625 55.8649 93.2625C56.6512 89.4982 57.1766 85.6842 57.4374 81.8475C57.9149 75.22 57.0949 73.375 57.0949 73.375L43.2824 73.7825Z" fill="#666666" stroke="#263238" stroke-width="0.5" stroke-miterlimit="10"/>
<path d="M50.5774 93.3125C50.6724 92.3325 50.7674 91.415 50.8124 91.1875C50.9199 90.655 51.1324 78.165 51.1324 78.165" stroke="#263238" stroke-width="0.5" stroke-miterlimit="10"/>
<path d="M50.3225 96.06C50.3225 96.06 50.4077 95.095 50.5105 94.02" stroke="#263238" stroke-width="0.5" stroke-miterlimit="10"/>
<path d="M58.045 116.223C58.455 116.085 58.045 115.195 57.84 115.195C57.635 115.195 55.38 114.17 55.105 113.83L54.635 114.83L51.385 114.763C51.385 115.513 51.4225 116.085 51.495 116.085C51.7 116.085 51.835 116.223 52.11 116.223C52.385 116.223 57.635 116.358 58.045 116.223Z" fill="white" stroke="#263238" stroke-width="0.5" stroke-miterlimit="10"/>
<path d="M49.1599 115.403C49.1607 114.968 49.1264 114.534 49.0574 114.105L49.0224 114.075H45.4999C45.2674 114.898 45.0674 115.63 45.0674 115.743C45.0674 116.018 45.2049 116.358 45.4774 116.29C45.7499 116.223 48.6899 116.29 48.6899 116.29C48.6899 116.29 49.0924 116.153 49.1599 115.403Z" fill="white" stroke="#263238" stroke-width="0.5" stroke-miterlimit="10"/>
<path d="M41.0275 54.8076L40 63.2801L44.7025 63.6726L44.61 61.0001L45.86 65.3301C45.86 65.3301 44.265 68.4651 43.6375 70.4026C43.222 71.7975 42.9358 73.2277 42.7825 74.6751H57.4275C57.4275 74.6751 56.9475 68.8851 56.605 67.6326C56.3322 66.4221 56.1302 65.1967 56 63.9626L54.975 62.3676C54.975 62.3676 56.1975 59.4051 56.14 57.9226C56.0985 56.9843 55.984 56.0506 55.7975 55.1301L50.2 56.0526L41.0275 54.8076Z" fill="#C6965C" stroke="#263238" stroke-width="0.5" stroke-miterlimit="10"/>
<path d="M47.675 47.25C47.675 47.25 47.495 50.595 47.27 51.1375C47.045 51.68 41.77 54.445 41.77 54.445C41.77 54.445 48.9475 56.065 50.215 56.065C51.4825 56.065 56.81 54.03 56.81 54.03C56.81 54.03 53.06 52.1775 52.2025 51.68C51.8168 51.4775 51.4531 51.2353 51.1175 50.9575L50.9825 49.24L47.675 47.25Z" fill="white" stroke="#263238" stroke-width="0.5" stroke-miterlimit="10"/>
<path d="M48.47 48.79L51.11 50.945L51.0025 50.0225L48.47 48.79Z" fill="#263238" stroke="#263238" stroke-width="0.5" stroke-miterlimit="10"/>
<path d="M52.6225 39.9202C52.6225 39.9202 53.96 41.5052 54.03 42.1377C54.1 42.7702 53.78 43.5102 53.925 44.2852C54.07 45.0602 54.065 46.5027 53.6075 47.3827C53.15 48.2627 52.6225 49.6002 52.165 49.7752C51.8003 49.9423 51.4036 50.0277 51.0025 50.0252C50.545 50.0252 48.9625 49.0752 48.47 48.7927C47.9775 48.5102 47.3775 48.0902 47.1325 47.6677C46.9633 47.3636 46.8219 47.0448 46.71 46.7152C46.424 46.61 46.1671 46.4387 45.96 46.2152C45.6425 45.8652 45.46 44.7377 45.46 44.7377C45.46 44.7377 46.8675 44.5977 47.46 43.5052C48.0525 42.4127 48.34 40.8302 49.5025 40.0902C50.665 39.3502 51.2275 39.8802 51.4375 40.0552C51.6475 40.2302 52.6225 39.9202 52.6225 39.9202Z" fill="white" stroke="#263238" stroke-width="0.5" stroke-miterlimit="10"/>
<path d="M51.8125 46.6777L52.7625 46.4676L52.6225 45.8326C52.6225 45.8326 51.955 44.3901 52.4475 42.9126C52.8171 42.878 53.1878 42.9659 53.5025 43.1626" stroke="#263238" stroke-width="0.5" stroke-miterlimit="10"/>
<path d="M51.7076 47.4999C51.3574 47.5525 50.9995 47.5157 50.6673 47.3929C50.3351 47.27 50.0394 47.0652 49.8076 46.7974" fill="white"/>
<path d="M51.7076 47.4999C51.3574 47.5525 50.9995 47.5157 50.6673 47.3929C50.3351 47.27 50.0394 47.0652 49.8076 46.7974" stroke="#263238" stroke-width="0.5" stroke-miterlimit="10"/>
<path d="M50.3876 44.6023C50.5339 44.6023 50.6526 44.4132 50.6526 44.1798C50.6526 43.9465 50.5339 43.7573 50.3876 43.7573C50.2412 43.7573 50.1226 43.9465 50.1226 44.1798C50.1226 44.4132 50.2412 44.6023 50.3876 44.6023Z" fill="#263238"/>
<path d="M52.7999 44.4949C52.9463 44.4949 53.0649 44.3057 53.0649 44.0724C53.0649 43.8391 52.9463 43.6499 52.7999 43.6499C52.6536 43.6499 52.5349 43.8391 52.5349 44.0724C52.5349 44.3057 52.6536 44.4949 52.7999 44.4949Z" fill="#263238"/>
<path d="M49.3501 43.2301C49.8082 43.0392 50.2967 42.9317 50.7926 42.9126L49.3501 43.2301Z" fill="white"/>
<path d="M49.3501 43.2301C49.8082 43.0392 50.2967 42.9317 50.7926 42.9126" stroke="#263238" stroke-width="0.5" stroke-miterlimit="10"/>
<path d="M40.9651 63.3926L41.3626 67.2101L50.0251 75.0176C50.0251 75.0176 50.8226 76.3851 51.2751 76.5551C51.7276 76.7251 52.7576 77.3551 53.1551 77.0701C53.5526 76.7851 53.3276 76.6701 53.2126 76.3851C53.0337 75.9788 52.8817 75.5613 52.7576 75.1351C52.6426 74.6776 52.2576 73.8226 51.8451 73.5376C51.4326 73.2526 50.5951 73.0251 50.4201 72.9676C50.2451 72.9101 44.4726 65.8576 44.4726 65.8576L44.3126 63.6551L40.9651 63.3926Z" fill="white" stroke="#263238" stroke-width="0.5" stroke-miterlimit="10"/>
<path d="M56.9449 54.7324C57.153 55.3377 57.4036 55.9275 57.6949 56.4974C58.0949 57.2474 59.1699 62.4074 59.1699 62.4074L55.1324 63.6574L54.9924 62.3724C54.9924 62.3724 56.2699 58.8399 56.1574 57.9274C56.0449 57.0149 55.8149 55.1349 55.8149 55.1349L56.9449 54.7324Z" fill="#C6965C" stroke="#263238" stroke-width="0.5" stroke-miterlimit="10"/>
<path d="M58.0925 62.75L57.7175 67.0325C57.7175 67.0325 53.6025 72.9575 53.375 73.185C53.1475 73.4125 52.7025 74.9525 52.19 75.295C51.6775 75.6375 50.65 76.435 50.1375 76.545C49.625 76.655 49.2825 76.49 49.34 76.205C49.3975 75.92 50.09 73.9825 50.09 73.9825C50.09 73.9825 49.5525 74.45 49.21 74.7325C48.8675 75.015 48.56 74.63 48.8 74.3225C49.04 74.015 49.5625 73.285 49.9975 73.125C50.4325 72.965 51.7075 72.6475 51.945 72.475C52.1825 72.3025 54.715 66.3525 54.715 66.3525L55.13 63.6525L58.0925 62.75Z" fill="white" stroke="#263238" stroke-width="0.5" stroke-miterlimit="10"/>
<path d="M49.5349 76.4852C49.8145 75.9906 50.1208 75.5116 50.4524 75.0502C50.6087 74.8869 50.7549 74.714 50.8899 74.5327" stroke="#263238" stroke-width="0.5" stroke-miterlimit="10"/>
<path d="M50.1375 76.555L51.13 75.37L51.5675 74.8125" stroke="#263238" stroke-width="0.5" stroke-miterlimit="10"/>
<path d="M51.3301 76.0073L51.9676 75.0498" stroke="#263238" stroke-width="0.5" stroke-miterlimit="10"/>
<path d="M41.9949 53.4399L40.3999 54.9199L50.3099 56.6699L57.7999 55.0149L56.7174 53.4199L50.0249 55.6424L41.9949 53.4399Z" fill="white" stroke="#263238" stroke-width="0.5" stroke-miterlimit="10"/>
</svg>
