<svg width="148" height="148" viewBox="0 0 148 148" fill="none" xmlns="http://www.w3.org/2000/svg">
<g filter="url(#filter0_i_17_235)">
<g filter="url(#filter1_i_17_235)">
<circle cx="74" cy="74" r="74" fill="url(#paint0_linear_17_235)"/>
</g>
<circle cx="74" cy="74" r="72" stroke="#C6965C" stroke-width="4"/>
<path d="M53.9892 112C53.8977 111.983 53.9435 111.966 53.9894 111.949C52.5997 109.653 53.2651 107.119 53.212 104.688C53.1171 100.346 53.1887 95.9997 53.1813 91.6551C53.1804 91.1319 53.1207 90.6088 53.079 89.9375C52.0353 89.9375 51.1128 89.9911 50.1991 89.9243C48.9788 89.8352 48.1521 88.8375 48.6432 87.8323C50.3281 84.3838 52.1495 81.002 54.1376 77.522C66.9451 77.4209 79.5338 77.3729 92.1222 77.4214C92.758 77.4238 93.5646 78.1359 93.9871 78.7331C94.7676 79.8361 95.3221 81.099 96.002 82.3873C96.8362 84.0927 97.6665 85.6933 98.4337 87.3236C99.1223 88.7867 98.4947 89.8259 96.8678 89.933C95.9785 89.9916 95.0822 89.9435 94.0637 89.9435C94.0637 92.4815 94.0768 94.8139 94.0607 97.146C94.0348 100.877 94.0309 104.61 93.9288 108.339C93.8953 109.563 93.5858 110.78 93.4025 112C80.3105 112 67.2185 112 53.9892 112ZM72.1785 98.0839C72.1785 101.528 72.1785 104.971 72.1785 108.481C78.3646 108.481 84.3486 108.481 90.5508 108.481C90.5508 102.323 90.5508 96.1991 90.5508 89.9465C89.8979 89.9465 89.3691 89.9465 88.8402 89.9465C84.5464 89.9465 80.2517 89.8965 75.9594 89.9762C74.6242 90.001 73.8468 89.4949 73.3421 88.3437C73.0784 87.7421 72.7617 87.1637 72.469 86.5749C72.3721 86.6109 72.2752 86.6469 72.1783 86.683C72.1783 90.3856 72.1783 94.0883 72.1785 98.0839ZM60.4469 89.9456C59.2025 89.9456 57.958 89.9456 56.6591 89.9456C56.6591 96.245 56.6591 102.315 56.6591 108.434C60.7639 108.434 64.7712 108.434 68.7605 108.434C68.7605 101.01 68.7605 93.7027 68.7605 86.1647C68.3112 86.9562 67.858 87.4897 67.6897 88.1016C67.2247 89.7926 66.0505 90.0591 64.5401 89.9622C63.2778 89.8812 62.006 89.9456 60.4469 89.9456Z" fill="#C6965C"/>
<path d="M93.0012 58.592C91.5547 56.4727 92.2371 55.6849 95.8689 55.2813C94.5871 49.2934 88.2746 42.1733 79.9173 40.4388C70.1473 38.411 61.5 42.9426 57.5245 49.2324C58.246 49.425 58.9227 49.595 59.5932 49.787C60.6141 50.0794 61.494 50.5821 61.1433 51.822C60.8078 53.0079 59.9416 53.2576 58.7292 52.9882C53.0553 51.7276 47.9715 52.8832 43.7819 57.0384C37.2853 63.4817 37.9152 74.3028 45.0856 80.0702C46.0151 80.8178 47.0644 81.4165 48.148 82.1445C47.669 83.0734 47.2126 83.9583 46.7027 84.9469C42.0526 82.9094 39.0029 79.5781 37.2674 75.0024C36.8477 73.8959 36.5148 72.7565 36.0612 71.7478C35.9804 69.6112 35.9804 67.359 36.0566 65.0912C36.3525 64.4165 36.5973 63.7647 36.7879 63.0973C39.0111 55.3104 44.0235 50.6185 52.0846 49.3334C52.9963 49.1881 53.643 48.8922 54.1932 48.0518C57.9656 42.2899 63.1103 38.4974 70.0022 37.2804C69.8206 37.4782 70.2122 37.2433 70.0022 37.2804C70.4988 37.2804 71.0374 37.1892 71.5956 37.1468C72.6594 37.0658 73.8076 37.0063 74.9647 37.0003C75.8135 36.9959 76.6644 37.0438 77.4834 37.104C77.671 37.1178 77.857 37.1322 78.0409 37.1468C78.7804 37.2054 79.4864 37.2697 80.1324 37.2891C79.8787 37.2482 80.3996 37.5168 80.1324 37.2891C85.1551 38.0973 89.3864 40.4472 92.9825 43.9657C96.0713 46.9879 98.0989 50.6579 99.3522 54.7859C99.5107 55.3078 99.9658 55.9598 100.437 56.1328C105.698 58.0641 109.172 61.6131 110.655 67.0622C110.704 67.2406 111.06 67.3352 111.273 67.4689C111.273 69.9164 111.273 72.3639 111.216 74.8186C110.915 75.2625 110.603 75.6748 110.44 76.1397C108.811 80.8022 105.731 84.0247 101.093 85.8081C100.663 85.1341 100.301 84.5673 99.9536 83.8765C99.5471 82.6344 100.543 82.5939 101.12 82.2972C106.337 79.619 109.013 73.832 107.632 68.1663C106.255 62.5142 101.185 58.5975 95.3295 58.6507C94.5536 58.6578 93.7773 58.6129 93.0012 58.592Z" fill="white"/>
<path d="M88.6586 61.4889C88.4041 62.2687 88.2745 63.2635 87.7438 63.5751C87.3118 63.8287 86.2541 63.4502 85.722 63.0345C78.1947 57.1536 69.0897 57.1527 61.5232 63.0634C61.0503 63.4328 60.4099 63.5879 59.7319 63.8592C57.8441 62.841 57.7021 61.9957 59.2802 60.7374C66.1891 55.2284 73.737 53.76 82.0818 57.1524C84.5566 58.1585 86.7625 59.4855 88.6586 61.4889Z" fill="#C6965C"/>
<path d="M66.3517 63.5391C72.0218 60.8127 77.4007 61.1521 82.5739 64.548C82.9801 64.8147 83.3684 65.1207 83.7208 65.455C84.4206 66.1188 84.6578 67.0125 83.8899 67.6148C83.4154 67.987 82.5249 67.8967 81.8244 67.8796C81.546 67.8727 81.2794 67.4986 81.0026 67.2983C76.583 64.1008 70.7788 64.0748 66.3408 67.2322C65.983 67.4867 65.6371 67.945 65.2714 67.9599C64.6212 67.9864 63.6944 67.9562 63.3788 67.5575C63.0666 67.1632 63.1045 66.0378 63.4519 65.6674C64.2348 64.8328 65.3038 64.2666 66.3517 63.5391Z" fill="#C6965C"/>
<path d="M70.2847 68.6319C73.2295 67.6171 75.9505 67.8734 78.5345 69.3952C79.4605 69.9405 80.3322 70.6379 79.6305 71.8426C78.9543 73.0035 77.9984 72.7455 76.9984 72.1401C74.8139 70.8178 72.5658 70.7872 70.36 72.0808C69.3328 72.6832 68.3234 73.0905 67.6135 71.8189C66.8854 70.5148 67.9273 69.8792 68.8671 69.3102C69.2809 69.0597 69.7383 68.8814 70.2847 68.6319Z" fill="#C6965C"/>
</g>
<defs>
<filter id="filter0_i_17_235" x="0" y="0" width="148" height="152" filterUnits="userSpaceOnUse" color-interpolation-filters="sRGB">
<feFlood flood-opacity="0" result="BackgroundImageFix"/>
<feBlend mode="normal" in="SourceGraphic" in2="BackgroundImageFix" result="shape"/>
<feColorMatrix in="SourceAlpha" type="matrix" values="0 0 0 0 0 0 0 0 0 0 0 0 0 0 0 0 0 0 127 0" result="hardAlpha"/>
<feOffset dy="4"/>
<feGaussianBlur stdDeviation="2"/>
<feComposite in2="hardAlpha" operator="arithmetic" k2="-1" k3="1"/>
<feColorMatrix type="matrix" values="0 0 0 0 0 0 0 0 0 0 0 0 0 0 0 0 0 0 0.25 0"/>
<feBlend mode="normal" in2="shape" result="effect1_innerShadow_17_235"/>
</filter>
<filter id="filter1_i_17_235" x="0" y="0" width="148" height="148" filterUnits="userSpaceOnUse" color-interpolation-filters="sRGB">
<feFlood flood-opacity="0" result="BackgroundImageFix"/>
<feBlend mode="normal" in="SourceGraphic" in2="BackgroundImageFix" result="shape"/>
<feColorMatrix in="SourceAlpha" type="matrix" values="0 0 0 0 0 0 0 0 0 0 0 0 0 0 0 0 0 0 127 0" result="hardAlpha"/>
<feMorphology radius="20" operator="erode" in="SourceAlpha" result="effect1_innerShadow_17_235"/>
<feOffset/>
<feGaussianBlur stdDeviation="0.25"/>
<feComposite in2="hardAlpha" operator="arithmetic" k2="-1" k3="1"/>
<feColorMatrix type="matrix" values="0 0 0 0 0.262745 0 0 0 0 0.247059 0 0 0 0 0.243137 0 0 0 1 0"/>
<feBlend mode="normal" in2="shape" result="effect1_innerShadow_17_235"/>
</filter>
<linearGradient id="paint0_linear_17_235" x1="74" y1="142.29" x2="74" y2="-37.2284" gradientUnits="userSpaceOnUse">
<stop stop-color="#332D2D"/>
<stop offset="1"/>
</linearGradient>
</defs>
</svg>
