<svg width="148" height="148" viewBox="0 0 148 148" fill="none" xmlns="http://www.w3.org/2000/svg">
<g filter="url(#filter0_i_17_202)">
<circle cx="74" cy="74" r="74" fill="url(#paint0_linear_17_202)"/>
</g>
<circle cx="74" cy="74" r="72" stroke="#C6965C" stroke-width="4"/>
<path d="M60.5407 49.2023C53.2271 49.2023 45.9135 49.2023 38.4644 49.2023C38.4644 65.8142 38.4644 82.3408 38.4644 98.9652C48.6906 98.9652 58.8464 98.9652 69.1533 98.9652C69.2096 97.9234 69.264 96.9176 69.322 95.8461C70.3885 95.8461 71.3439 95.8461 72.5001 95.8461C72.0766 98.2159 73.4798 100.729 71.3303 102.709C59.5907 102.778 47.7276 102.778 35.8409 102.746C35.6429 102.368 35.4686 102.021 35.2971 101.519C35.2828 100.481 35.2508 99.5988 35.2507 98.7163C35.2476 82.4088 35.2502 66.1012 35.2436 49.7936C35.2433 48.9129 35.1735 48.0323 35.1729 47.0521C35.6195 46.5993 36.0294 46.246 36.588 45.9174C40.4254 45.9543 44.1141 45.9779 47.8027 45.965C48.3024 45.9633 48.8014 45.7788 49.3007 45.679C53.7795 45.679 58.2582 45.679 62.9483 45.7622C63.8645 46.5143 64.6418 47.1226 65.2609 47.8631C67.4102 50.4337 69.5046 53.0502 71.6633 55.7418C71.8205 55.9005 71.9342 55.9666 72.0449 56.0138C72.0419 55.9948 72.004 56.0009 72.0101 56.0989C72.1234 56.2553 72.2306 56.3137 72.3247 56.3716C72.3118 56.3711 72.3083 56.3968 72.3083 56.3968C72.3704 61.6403 72.4434 66.8838 72.4901 72.1274C72.5133 74.7248 72.4869 77.3226 72.4855 79.9202C72.4841 82.7612 72.3652 82.8528 69.2779 82.2116C69.2779 74.6315 69.2779 67.0161 69.2779 59.1261C67.2853 59.1261 65.4394 59.1332 63.5936 59.1241C61.5606 59.1142 61.1192 58.6778 61.0998 56.6605C61.0808 54.6867 61.0763 52.7128 61.0588 50.5031C60.8817 49.9124 60.7112 49.5574 60.5407 49.2023ZM64.3372 52.8408C64.3372 53.7549 64.3372 54.669 64.3372 55.6965C65.3076 55.6965 66.141 55.6965 67.5078 55.6965C66.2618 54.4707 65.3305 53.5545 64.3372 52.8408Z" fill="white"/>
<path d="M76.904 102.778C76.8361 102.725 76.9144 102.673 76.9927 102.62C75.1912 100.079 75.1921 100.071 77.8586 98.3185C78.1143 98.1504 78.3807 97.9986 78.356 98.0136C79.1164 98.4407 79.6674 99.0185 80.2218 99.0217C89.7341 99.0764 99.2469 99.0608 108.76 99.0559C109.062 99.0557 109.364 99.004 109.782 98.9657C109.782 85.7305 109.782 72.5571 109.782 59.1265C107.973 59.1265 106.174 59.1324 104.375 59.1249C102.231 59.116 101.795 58.6965 101.783 56.5886C101.769 54.1563 101.779 51.7238 101.779 49.2392C94.1117 49.2392 86.6516 49.2392 79.0382 49.2392C79.0382 59.6058 79.0382 69.8773 79.0382 80.6289C77.7393 79.7214 76.7581 79.0359 75.7347 78.1569C75.7044 75.4202 75.7352 72.8769 75.7244 70.3338C75.703 65.3015 75.6585 60.2693 75.6236 55.2371C75.6512 54.9612 75.6788 54.6854 75.6988 54.1712C75.6661 52.5359 75.6409 51.1388 75.6226 49.6562C75.5985 49.5223 75.5675 49.4741 75.5259 49.4248C75.5154 49.4237 75.5151 49.4449 75.5937 49.345C75.7504 48.355 75.8284 47.4648 75.9616 46.5075C76.2557 46.2859 76.4946 46.1316 76.8812 45.9837C85.0245 45.9884 93.0202 45.9927 101.016 45.9718C101.562 45.9704 102.109 45.781 102.655 45.679C103.19 45.679 103.725 45.679 104.281 45.7425C107.202 49.4472 110.101 53.0883 112.993 56.8883C112.977 67.81 112.975 78.5728 112.957 89.3356C112.949 93.4943 112.904 97.653 112.784 101.897C112.571 102.247 112.449 102.512 112.328 102.778C100.568 102.778 88.8093 102.778 76.904 102.778ZM105.141 55.4116C105.985 55.5686 106.829 55.7256 107.673 55.8826C107.723 55.7458 107.773 55.6089 107.823 55.4721C107.032 54.5132 106.241 53.5543 105.451 52.5954C105.328 52.6403 105.206 52.6851 105.084 52.73C105.084 53.5326 105.084 54.3352 105.141 55.4116Z" fill="white"/>
<path d="M62.8033 91.9946C62.7593 89.8955 62.7593 87.9327 62.7593 85.7359C64.5488 85.7359 66.1967 85.7359 67.8446 85.7359C69.8721 85.7359 71.9035 85.6592 73.9257 85.7621C75.3242 85.8333 75.9885 85.4328 75.7673 83.9519C75.7171 83.6153 75.8313 83.2542 75.9105 82.5337C79.1526 84.7491 82.1988 86.8307 85.4985 89.0856C82.234 91.3203 79.1815 93.4099 75.8752 95.6733C75.7921 94.504 75.7287 93.6116 75.6526 92.5399C75.0786 92.5039 74.5332 92.4415 73.9876 92.4399C70.8164 92.4304 67.6451 92.4494 64.4741 92.4215C63.931 92.4167 63.3896 92.2323 62.8033 91.9946Z" fill="#C6965C"/>
<path d="M45.5844 72.4646C41.5415 72.4639 41.541 72.4639 41.5414 68.5537C41.5416 67.2024 41.5364 65.851 41.549 64.4998C41.5613 63.1856 42.1771 62.4683 43.5525 62.4758C46.0471 62.4893 48.5418 62.4832 51.0365 62.48C52.3347 62.4783 52.9469 63.1797 52.9623 64.4165C52.9874 66.4431 52.9854 68.4704 52.9633 70.4971C52.9486 71.8441 52.2023 72.4659 50.881 72.4625C49.1659 72.4582 47.4508 72.4634 45.5844 72.4646Z" fill="#C6965C"/>
<path d="M89.5334 62.4783C93.6389 62.4782 93.6391 62.4782 93.639 66.4288C93.6389 67.7266 93.6177 69.0247 93.6426 70.322C93.6697 71.7368 93.0133 72.4571 91.5908 72.4577C89.1511 72.4588 86.7113 72.4614 84.2716 72.4554C83.0334 72.4524 82.2959 71.8794 82.2856 70.5857C82.2689 68.5095 82.269 66.4329 82.2841 64.3567C82.2934 63.081 82.9643 62.4696 84.2414 62.4792C85.9543 62.492 87.6674 62.4798 89.5334 62.4783Z" fill="#C6965C"/>
<path d="M101.091 75.7481C102.44 75.7516 103.635 75.7323 104.828 75.7653C105.921 75.7955 106.653 76.357 106.63 77.4796C106.606 78.6112 105.841 79.0959 104.748 79.0958C97.3751 79.0955 90.0026 79.0944 82.63 79.0982C81.4706 79.0988 80.6483 78.6121 80.6729 77.3953C80.6977 76.1683 81.5891 75.7527 82.7124 75.7524C88.7869 75.7508 94.8615 75.7495 101.091 75.7481Z" fill="white"/>
<path d="M62.707 75.7475C63.8476 75.7524 64.8357 75.7245 65.8204 75.7706C66.9164 75.8221 67.6187 76.4132 67.5627 77.5372C67.5109 78.5756 66.8054 79.0904 65.7741 79.091C58.2961 79.0957 50.8182 79.0975 43.3403 79.0868C42.3043 79.0853 41.6194 78.5262 41.5987 77.4895C41.5762 76.3681 42.297 75.7959 43.3911 75.7663C44.6885 75.7312 45.9873 75.7483 47.2855 75.748C52.3747 75.7467 57.4639 75.7475 62.707 75.7475Z" fill="white"/>
<path d="M49.6128 82.4479C52.2598 82.4484 54.7509 82.465 57.2417 82.4421C58.4222 82.4313 59.3987 82.7619 59.4048 84.092C59.411 85.4382 58.4071 85.7444 57.2421 85.7418C52.7272 85.7319 48.2123 85.7326 43.6975 85.7416C42.5034 85.7439 41.567 85.35 41.615 84.0156C41.6594 82.7835 42.57 82.4297 43.6965 82.443C45.6164 82.4657 47.5367 82.4484 49.6128 82.4479Z" fill="white"/>
<path d="M106.169 82.9524C106.973 84.7565 106.451 85.7062 104.661 85.7218C100.037 85.7621 95.4122 85.7343 90.7879 85.735C89.7261 85.7351 88.8893 85.3552 88.8353 84.1916C88.783 83.0645 89.4697 82.465 90.5887 82.4623C95.3687 82.4504 100.149 82.4494 104.929 82.4769C105.313 82.4791 105.696 82.7282 106.169 82.9524Z" fill="white"/>
<path d="M101.113 72.47C100.13 72.4594 99.2153 72.6609 98.495 72.374C97.8654 72.1233 97.0542 71.3185 97.0601 70.7664C97.066 70.214 97.9489 69.2479 98.5108 69.1995C100.675 69.0131 102.874 69.0112 105.039 69.1936C105.617 69.2423 106.442 70.1191 106.582 70.7435C106.802 71.7274 106.024 72.3809 105.002 72.4361C103.759 72.5033 102.51 72.4635 101.113 72.47Z" fill="white"/>
<path d="M63.2518 72.4698C61.6001 72.4698 60.0932 72.4533 58.5869 72.4747C57.3805 72.4919 56.2714 72.2364 56.2551 70.8115C56.2389 69.4037 57.2898 69.0722 58.5293 69.0975C60.1392 69.1304 61.7504 69.1185 63.3608 69.1011C64.5625 69.0881 65.746 69.1155 65.9144 70.6881C66.0396 71.8583 65.2269 72.4042 63.2518 72.4698Z" fill="white"/>
<path d="M61.4637 62.4783C62.4966 62.4819 63.377 62.4641 64.2557 62.4946C65.3028 62.531 66.06 63.1355 65.847 64.1327C65.7154 64.7492 64.9144 65.6288 64.3541 65.6757C62.1963 65.8562 60.0055 65.8569 57.8477 65.6766C57.2709 65.6284 56.4359 64.769 56.3069 64.158C56.102 63.1876 56.8477 62.5366 57.8959 62.5002C59.033 62.4607 60.1722 62.483 61.4637 62.4783Z" fill="white"/>
<path d="M97.9205 62.6177C100.326 62.5405 102.604 62.5002 104.883 62.4927C105.92 62.4893 106.602 63.0392 106.625 64.0775C106.65 65.212 105.921 65.7505 104.822 65.7595C102.853 65.7756 100.879 65.8397 98.9158 65.7243C98.295 65.6878 97.2897 65.2345 97.1964 64.8101C97.0558 64.1707 97.5622 63.3891 97.9205 62.6177Z" fill="white"/>
<path d="M75.5902 49.3294C75.463 48.5109 75.5677 47.565 75.957 46.4971C76.106 47.3169 75.9576 48.2601 75.5902 49.3294Z" fill="white"/>
<defs>
<filter id="filter0_i_17_202" x="0" y="0" width="148" height="148" filterUnits="userSpaceOnUse" color-interpolation-filters="sRGB">
<feFlood flood-opacity="0" result="BackgroundImageFix"/>
<feBlend mode="normal" in="SourceGraphic" in2="BackgroundImageFix" result="shape"/>
<feColorMatrix in="SourceAlpha" type="matrix" values="0 0 0 0 0 0 0 0 0 0 0 0 0 0 0 0 0 0 127 0" result="hardAlpha"/>
<feMorphology radius="20" operator="erode" in="SourceAlpha" result="effect1_innerShadow_17_202"/>
<feOffset/>
<feGaussianBlur stdDeviation="0.25"/>
<feComposite in2="hardAlpha" operator="arithmetic" k2="-1" k3="1"/>
<feColorMatrix type="matrix" values="0 0 0 0 0 0 0 0 0 0 0 0 0 0 0 0 0 0 0.25 0"/>
<feBlend mode="normal" in2="shape" result="effect1_innerShadow_17_202"/>
</filter>
<linearGradient id="paint0_linear_17_202" x1="74" y1="142.29" x2="74" y2="-5.90594e-07" gradientUnits="userSpaceOnUse">
<stop stop-color="#E73E3E"/>
<stop offset="1" stop-color="#520A0E"/>
</linearGradient>
</defs>
</svg>
