<svg width="148" height="148" viewBox="0 0 148 148" fill="none" xmlns="http://www.w3.org/2000/svg">
<g filter="url(#filter0_i_17_166)">
<circle cx="74" cy="74" r="74" fill="url(#paint0_linear_17_166)"/>
</g>
<circle cx="74" cy="74" r="72" stroke="#C6965C" stroke-width="4"/>
<path d="M43.1732 40.2557C43.2868 40.2557 44.9606 40.1865 45.2462 40.2477C44.8269 40.2476 45.8374 40.3525 45.2462 40.2477C63.9191 40.2538 82.5919 40.2548 101.265 40.2419C101.801 40.2416 102.337 40.0842 102.874 40C103.065 40 103.257 40 103.463 40.0628C104.583 40.9682 105.774 41.7448 105.945 43.43C105.945 60.7159 105.947 77.8812 105.965 95.0465C105.965 95.5318 106.116 96.017 106.197 96.5022C106.197 96.6939 106.197 96.8857 106.148 97.0743C105.975 97.1768 105.807 97.2582 105.735 97.3916C104.787 99.1434 103.327 99.8912 101.342 99.8037C99.8206 99.7368 98.2933 99.8127 96.6599 99.8019C95.0612 100.022 95.2347 99.0268 95.1731 98.059C95.096 96.8465 95.8244 96.9087 96.63 96.9155C98.2865 96.9296 99.9432 96.9257 101.6 96.9124C102.485 96.9053 103.212 96.6649 103.285 95.4795C103.318 81.9857 103.325 68.6023 103.327 55.2189C103.327 54.9683 103.262 54.7176 103.154 54.4C102.744 54.3047 102.407 54.2516 102.07 54.2515C83.02 54.2475 63.97 54.2466 44.92 54.2572C44.5152 54.2574 44.1106 54.3955 43.6703 54.5835C43.6256 68.1644 43.6163 81.6311 43.6105 95.0978C43.6104 95.2654 43.6563 95.4329 43.6725 95.7005C43.9706 96.9661 44.9067 96.9037 45.8122 96.9037C56.2674 96.9035 66.7227 96.9022 77.1779 96.9078C77.711 96.9081 78.244 96.9679 78.79 97.0008C78.79 98.0172 78.79 98.9005 78.6873 99.7861C77.516 99.7884 76.4474 99.7886 75.3789 99.7885C65.3854 99.7884 55.3919 99.7716 45.3985 99.803C43.5563 99.8088 42.1929 99.1451 41.3008 97.4164C41.1922 96.3393 41.0029 95.3714 41.0024 94.4035C40.9942 77.2098 41.009 60.016 41.0153 42.8212C41.0119 42.82 41.0095 42.8257 41.0778 42.7801C41.1798 42.6321 41.2133 42.5296 41.2771 42.3511C41.6138 41.841 41.8892 41.3797 42.2362 40.9808C42.5514 40.6186 42.8143 40.5799 43.1732 40.2557ZM44.3777 43.0481C44.1433 43.4445 43.909 43.8409 43.624 44.4576C43.6505 46.6798 43.677 48.902 43.82 51.2897C44.1957 51.3323 44.5715 51.4121 44.9472 51.4123C63.9489 51.4183 82.9506 51.4196 101.952 51.4049C102.382 51.4046 102.811 51.215 103.304 50.8701C103.281 48.5814 103.259 46.2927 103.23 43.8263C102.948 43.5528 102.666 43.2793 102.194 42.9093C101.856 42.8864 101.517 42.8433 101.179 42.8433C82.7205 42.84 64.2622 42.8393 45.8039 42.8472C45.388 42.8474 44.9721 42.9496 44.3777 43.0481Z" fill="white"/>
<path d="M84.3298 108.518C84.1472 108.346 84.1319 108.125 84.0139 108.008C83.3853 107.384 82.731 106.786 82.0321 106.022C81.8743 105.721 81.7701 105.577 81.6659 105.432C81.6659 105.432 81.6657 105.45 81.6952 105.33C81.6922 104.787 81.6315 104.363 81.6316 103.94C81.6346 94.6307 81.6431 85.3214 81.6579 76.0121C81.6584 75.6776 81.6454 75.3 81.7863 75.0155C83.3475 71.8629 84.9379 68.7248 86.6249 65.5817C87.0086 65.5857 87.2878 65.5907 87.6051 65.6706C87.9741 66.2353 88.3678 66.6945 88.6252 67.2205C89.6737 69.3623 90.7489 71.4958 91.6722 73.692C92.1021 74.7146 92.4164 75.8718 92.4264 76.9712C92.4969 84.7234 92.473 92.4764 92.4856 100.229C92.4864 100.694 92.5416 101.159 92.5464 101.738C92.5288 102.705 92.5363 103.558 92.4993 104.518C92.4131 104.932 92.3713 105.241 92.2836 105.615C91.4923 106.449 90.7389 107.209 90.0097 107.992C89.895 108.115 89.8902 108.34 89.8346 108.518C88.0396 108.518 86.2446 108.518 84.3298 108.518ZM89.76 99.1036C89.7771 92.2992 89.7931 85.4947 89.8118 78.6902C89.8178 76.5175 88.3026 75.3837 86.1416 75.947C84.9461 76.2587 84.2484 76.8495 84.3177 78.2649C84.4258 80.4711 84.3392 82.6866 84.348 84.8981C84.367 89.7019 84.3941 94.5057 84.4311 99.5338C86.1231 99.5582 87.8151 99.586 89.5072 99.594C89.5738 99.5943 89.6414 99.4059 89.76 99.1036Z" fill="#C6965C"/>
<path d="M86.6251 65.5817C84.9876 65.5923 83.4545 65.6015 81.9214 65.6115C80.9732 65.6177 80.3242 65.226 80.3165 64.2127C80.3088 63.2045 80.952 62.7767 81.8942 62.774C85.3017 62.7642 88.7091 62.7673 92.1166 62.7696C93.1058 62.7702 93.8279 63.1847 93.8011 64.2468C93.7764 65.2284 93.0982 65.6244 92.1483 65.6151C90.7003 65.6009 89.2521 65.6069 87.6856 65.6C87.288 65.5907 87.0088 65.5857 86.6251 65.5817Z" fill="white"/>
<path d="M69.7831 79.7162C70.5293 80.3189 70.7666 81.0865 70.7528 82.0494C70.7051 85.3671 70.7416 88.686 70.7308 92.0043C70.7254 93.6635 70.3488 94.0544 68.7078 94.0572C62.3689 94.068 56.0298 94.0684 49.6909 94.0584C48.0761 94.0558 47.6735 93.6327 47.6692 91.9891C47.6603 88.5856 47.6241 85.1811 47.7061 81.7796C47.721 81.1594 48.2439 80.5514 48.7261 79.8842C55.1575 79.8293 61.395 79.8316 67.6324 79.8219C68.3494 79.8208 69.0662 79.7531 69.7831 79.7162Z" fill="#C6965C"/>
<path d="M58.3877 65.6118C55.366 65.6115 52.472 65.6203 49.5781 65.607C48.1082 65.6002 47.6893 65.1779 47.6724 63.6997C47.6544 62.1253 47.6529 60.5503 47.6732 58.9759C47.6915 57.5654 48.1222 57.1093 49.4902 57.1068C55.9589 57.095 62.4277 57.0957 68.8965 57.1062C70.2625 57.1084 70.6975 57.5144 70.7221 58.8239C70.754 60.5256 70.7271 62.2284 70.7303 63.9306C70.7325 65.1016 70.1439 65.62 68.9847 65.6151C65.495 65.6002 62.0053 65.611 58.3877 65.6118Z" fill="#C6965C"/>
<path d="M86.7667 59.9466C83.6675 59.9466 80.6961 59.9466 77.6359 59.9466C77.6359 64.7187 77.6359 69.3404 77.6359 74.0103C77.9954 74.1028 78.3586 74.1962 78.8037 74.3107C78.8037 75.1295 78.8037 75.9635 78.8037 76.9923C77.8945 76.9923 77.013 77.0519 76.1433 76.9759C75.2267 76.8959 74.8241 76.2482 74.8225 75.3791C74.8119 69.8405 74.8095 64.302 74.8214 58.7634C74.8238 57.6142 75.4374 57.0877 76.6007 57.0901C83.5453 57.1045 90.4898 57.0909 97.4344 57.102C98.8131 57.1042 99.2659 57.5592 99.2697 58.9591C99.2844 64.3272 99.2835 69.6955 99.2715 75.0636C99.2682 76.5288 98.8103 76.9712 97.3739 77.0169C95.0223 77.0919 94.9244 76.9652 95.3244 74.2967C95.6655 74.2169 96.0276 74.1322 96.4696 74.0288C96.4696 69.3972 96.4696 64.7741 96.4696 59.9466C93.2445 59.9466 90.0695 59.9466 86.7667 59.9466Z" fill="white"/>
<path d="M62.4786 77.0183C58.2215 77.0183 54.0923 77.0212 49.963 77.0142C49.5405 77.0135 48.9941 77.1073 48.7238 76.888C48.2833 76.5304 47.7762 75.9569 47.7638 75.4629C47.7536 75.0557 48.3795 74.582 48.8044 74.2377C48.9921 74.0856 49.3799 74.1656 49.6768 74.1654C56.0197 74.1626 62.3625 74.1633 68.7054 74.1636C68.8331 74.1636 68.9608 74.166 69.0885 74.1672C70.0215 74.176 70.6945 74.5379 70.699 75.5621C70.7035 76.5705 70.0524 76.9987 69.1195 77.0071C66.9486 77.0268 64.7775 77.0165 62.4786 77.0183Z" fill="white"/>
<path d="M56.3425 68.4575C60.3845 68.4577 64.2987 68.4567 68.2129 68.4595C68.6379 68.4599 69.1696 68.3272 69.4642 68.5295C69.9573 68.8681 70.615 69.4269 70.615 69.8932C70.6151 70.3513 69.9291 70.8693 69.4508 71.2409C69.2341 71.4093 68.7917 71.2957 68.4517 71.2958C62.2827 71.2975 56.1136 71.2972 49.9445 71.2967C49.6893 71.2967 49.4337 71.2992 49.1789 71.2866C48.2809 71.2422 47.7049 70.7973 47.7065 69.8745C47.7082 68.944 48.3115 68.4926 49.195 68.4756C50.8112 68.4445 52.4282 68.4604 54.0449 68.4576C54.7682 68.4563 55.4914 68.4574 56.3425 68.4575Z" fill="white"/>
<path d="M59.7556 47.7081C59.2325 48.5586 58.511 48.8714 57.8264 48.2648C57.4557 47.9363 57.1932 47.0918 57.3583 46.664C57.5213 46.2413 58.3194 45.7628 58.7773 45.8181C59.7049 45.9301 60.035 46.6874 59.7556 47.7081Z" fill="#C6965C"/>
<path d="M51.7573 47.1534C52.1959 46.6149 52.5701 46.0062 53.0997 45.8036C53.3679 45.701 54.0902 46.242 54.3008 46.6502C54.6814 47.3877 54.3781 48.1312 53.5856 48.4164C52.5729 48.7808 51.9719 48.2614 51.7573 47.1534Z" fill="#C6965C"/>
<path d="M48.6692 46.235C49.1438 47.0262 49.1502 47.7565 48.445 48.2176C48.0941 48.447 47.4385 48.5033 47.0579 48.3324C46.2904 47.9878 46.0974 47.2243 46.5012 46.5064C47.0108 45.6003 47.7692 45.4508 48.6692 46.235Z" fill="#C6965C"/>
<defs>
<filter id="filter0_i_17_166" x="0" y="0" width="148" height="148" filterUnits="userSpaceOnUse" color-interpolation-filters="sRGB">
<feFlood flood-opacity="0" result="BackgroundImageFix"/>
<feBlend mode="normal" in="SourceGraphic" in2="BackgroundImageFix" result="shape"/>
<feColorMatrix in="SourceAlpha" type="matrix" values="0 0 0 0 0 0 0 0 0 0 0 0 0 0 0 0 0 0 127 0" result="hardAlpha"/>
<feMorphology radius="20" operator="erode" in="SourceAlpha" result="effect1_innerShadow_17_166"/>
<feOffset/>
<feGaussianBlur stdDeviation="0.25"/>
<feComposite in2="hardAlpha" operator="arithmetic" k2="-1" k3="1"/>
<feColorMatrix type="matrix" values="0 0 0 0 0 0 0 0 0 0 0 0 0 0 0 0 0 0 0.25 0"/>
<feBlend mode="normal" in2="shape" result="effect1_innerShadow_17_166"/>
</filter>
<linearGradient id="paint0_linear_17_166" x1="74" y1="142.29" x2="74" y2="-5.90594e-07" gradientUnits="userSpaceOnUse">
<stop stop-color="#E73E3E"/>
<stop offset="1" stop-color="#520A0E"/>
</linearGradient>
</defs>
</svg>
