<svg width="148" height="148" viewBox="0 0 148 148" fill="none" xmlns="http://www.w3.org/2000/svg">
<g filter="url(#filter0_i_17_188)">
<g filter="url(#filter1_i_17_188)">
<circle cx="74" cy="74" r="72" stroke="#C6965C" stroke-width="4"/>
</g>
<path d="M37.3407 67.2027C38.1591 64.9494 39.8451 63.9402 42.1627 63.9381C55.4795 63.9263 68.7964 63.9195 82.1132 63.9426C85.0419 63.9476 87.0441 65.9868 87.0514 68.9371C87.0741 78.1227 87.0757 87.3084 87.0508 96.4941C87.0426 99.5161 85.0321 101.476 81.9703 101.499C78.1379 101.528 74.3051 101.506 70.264 101.506C70.5559 103.35 70.7677 105.059 71.1403 106.733C71.2171 107.077 71.8645 107.361 72.3027 107.542C72.8186 107.755 73.3932 107.826 74.0223 108.096C74.1365 108.291 74.1859 108.33 74.2503 108.348C74.2503 108.348 74.3211 108.401 74.3163 108.544C74.2316 109.211 74.1516 109.736 74.0717 110.261C74.0717 110.261 74.0137 110.362 73.8638 110.38C73.4446 110.406 73.1753 110.414 72.797 110.367C72.2613 110.249 71.8346 110.13 71.4077 110.13C65.1235 110.118 58.8392 110.114 52.555 110.134C52.0394 110.135 51.5244 110.317 50.9303 110.398C50.7075 110.31 50.5636 110.239 50.4204 110.06C50.2573 109.541 50.0933 109.131 49.9061 108.629C49.8632 108.476 49.8435 108.416 49.8714 108.26C50.5852 107.965 51.2592 107.787 51.9147 107.557C52.2827 107.428 52.8819 107.265 52.9299 107.027C53.2869 105.256 53.5319 103.463 53.8393 101.503C53.1205 101.503 52.6473 101.502 52.1741 101.503C48.9319 101.504 45.6892 101.473 42.4475 101.518C40.3382 101.547 38.6887 100.829 37.6002 98.9594C37.5182 98.8186 37.2055 98.8121 37 98.7431C37 98.5242 37 98.3054 37.0839 97.888C37.2037 97.1132 37.2692 96.537 37.2709 95.9606C37.2989 86.3746 37.3189 76.7886 37.3407 67.2027ZM83.7552 90.2886C83.7779 83.4353 83.8052 76.582 83.8205 69.7286C83.8254 67.55 83.4489 67.1777 81.2766 67.1772C68.4415 67.1741 55.6064 67.174 42.7712 67.1778C40.6829 67.1784 40.2641 67.5841 40.262 69.6196C40.2555 76.0857 40.2545 82.5519 40.2706 89.0181C40.2719 89.5393 40.4199 90.0601 40.6348 90.7572C41.0828 90.8906 41.5305 91.1399 41.9787 91.1406C55.372 91.1614 68.7653 91.1642 82.1585 91.1322C82.6688 91.131 83.1781 90.7549 83.7552 90.2886ZM40.8128 93.698C39.6845 94.8009 40.2186 96.1535 40.5238 97.2994C40.6484 97.767 41.834 98.222 42.5389 98.225C55.5169 98.2799 68.4952 98.2655 81.4735 98.2642C81.7647 98.2642 82.1611 98.3632 82.3278 98.2141C82.8576 97.7403 83.6824 97.1796 83.695 96.6364C83.7169 95.6847 84.5692 94.4245 82.9051 93.6531C69.1456 93.6436 55.3861 93.6336 41.6266 93.6285C41.4357 93.6284 41.2448 93.6882 40.8128 93.698ZM66.9251 101.972C66.7094 101.817 66.4953 101.53 66.2779 101.528C63.5146 101.495 60.7499 101.468 57.9885 101.545C57.6616 101.555 57.1571 102.146 57.0691 102.542C56.7145 104.137 56.4912 105.761 56.2041 107.464C60.1042 107.464 63.8999 107.464 67.8532 107.464C67.5497 105.63 67.267 103.921 66.9251 101.972Z" fill="white"/>
<path d="M49.9771 111C49.763 110.596 49.6472 110.194 49.6187 109.786C49.5884 109.353 49.6408 108.915 49.7404 108.417C49.8434 108.416 49.863 108.476 49.8953 108.728C50.0784 109.336 50.2489 109.753 50.4195 110.169C50.5634 110.239 50.7074 110.31 51.0668 110.401C58.49 110.421 65.6979 110.421 72.9058 110.421C73.1751 110.414 73.4445 110.406 73.813 110.409C73.8677 110.6 73.8233 110.781 73.9205 110.981C66.0794 111 58.0966 111 49.9771 111Z" fill="white"/>
<path d="M93.1864 36C93.4985 36.9292 93.674 37.8585 93.7576 38.8276C93.2813 38.0414 93.0494 36.654 92.4824 36.4999C91.0768 36.1181 89.5029 36.165 88.0294 36.3309C87.5356 36.3866 87.1409 37.3231 86.7009 37.8571C86.7864 37.3155 86.8719 36.7739 86.9301 36.1162C88.9518 36 91.0007 36 93.1864 36Z" fill="#C6965C"/>
<path d="M111.68 55.0019C111.674 56.8291 111.672 58.6527 111.65 60.6083C111.631 60.7402 111.543 60.763 111.397 60.7522C111.073 60.8261 110.895 60.9108 110.717 60.9955C110.717 60.9955 110.645 61.0202 110.506 61.0208C110.192 61.1096 110.016 61.1977 109.841 61.2859C109.841 61.2859 109.769 61.3105 109.631 61.3106C109.317 61.3985 109.142 61.4863 108.966 61.5742C108.966 61.5742 108.891 61.5991 108.746 61.5967C108.345 61.6964 108.089 61.7984 107.833 61.9003C106.791 62.3322 105.748 62.5504 105.174 63.8619C104.495 65.412 105.085 66.5612 105.688 67.8052C106.214 68.8904 107.311 70.0012 107.207 71.0024C107.108 71.9635 105.704 72.7386 105.028 73.7032C104.101 75.0233 103.129 75.3052 101.773 74.344C101.109 73.8738 100.246 73.6764 99.6071 73.1819C98.0974 72.0127 96.6842 72.6055 95.315 73.3383C94.9221 73.5486 94.672 74.1476 94.4969 74.6204C93.9619 76.0651 93.4953 77.5352 92.9034 79.1835C90.3674 80.0151 90.075 79.8025 90.0745 77.3859C90.074 75.6351 90.1717 73.8771 90.0435 72.1357C89.9381 70.7021 90.4204 70.2775 91.8502 70.091C98.6582 69.203 103.323 62.8754 102.368 56.0169C101.444 49.3793 95.1963 44.6116 88.5419 45.4665C81.6906 46.3467 76.8582 52.5318 77.7001 59.3381C77.7569 59.7976 77.7826 60.261 77.8233 60.7292C74.5798 60.7292 71.4863 60.7292 68.3927 60.7292C68.3189 59.0018 68.2048 57.2742 68.2128 55.5472C68.2141 55.2753 68.7241 54.8919 69.0748 54.7567C70.1562 54.3397 71.2558 53.9363 72.3829 53.68C73.7694 53.3646 74.8475 52.7801 75.0188 51.2496C75.1035 50.4937 75.1836 49.6443 74.9285 48.9635C74.4561 47.7023 73.7925 46.5001 73.0994 45.3385C72.6226 44.5393 72.7822 44.0132 73.4427 43.4728C73.8534 43.1369 74.2073 42.7315 74.5844 42.3549C76.7004 40.2419 76.7002 40.2417 79.4697 41.9586C79.9097 42.2116 80.2069 42.3342 80.5041 42.4567C80.5041 42.4567 80.5908 42.4817 80.6822 42.567C80.8764 42.6847 80.9792 42.717 81.082 42.7494C81.082 42.7494 81.1714 42.7758 81.2646 42.8609C81.4604 42.9781 81.563 43.0101 81.6656 43.0421C81.6656 43.0421 81.746 43.0663 81.8298 43.162C82.2562 43.209 82.5988 43.1604 82.9413 43.1117C82.9413 43.1117 83.014 43.0741 83.1483 43.0597C83.4224 42.9333 83.5621 42.8213 83.7019 42.7094C83.7019 42.7094 83.7066 42.7234 83.8121 42.7316C84.4425 42.3368 84.9673 41.9338 85.4921 41.5308C85.4921 41.5308 85.5101 41.4341 85.5903 41.3212C85.7014 41.0341 85.7322 40.8599 85.763 40.6856C85.763 40.6856 85.7416 40.6758 85.8229 40.6076C85.9597 40.2831 86.0152 40.0268 86.0707 39.7705C86.0707 39.7705 86.09 39.6784 86.1718 39.5636C86.2895 39.2649 86.3255 39.0811 86.3614 38.8973C86.3614 38.8973 86.3793 38.8029 86.46 38.6865C86.5775 38.3866 86.6142 38.2031 86.6509 38.0196C86.6509 38.0196 86.6674 37.9348 86.684 37.8959C87.1406 37.3231 87.5353 36.3865 88.0291 36.3309C89.5026 36.165 91.0765 36.1181 92.4821 36.4999C93.0491 36.6539 93.281 38.0414 93.7389 38.9467C93.8123 39.0259 93.8462 39.1061 93.8479 39.2448C93.9337 39.5504 94.0178 39.7173 94.1019 39.8843C94.1019 39.8843 94.134 39.9753 94.1338 40.1247C94.2307 40.5206 94.3277 40.7672 94.4247 41.0139C95.1102 42.6574 97.3207 43.4943 98.9097 42.7064C100.172 42.0804 101.405 41.3833 102.706 40.8531C103.107 40.6895 103.751 40.8552 104.172 41.0798C104.623 41.3204 104.942 41.8082 105.318 42.1884C107.537 44.4312 107.489 44.4064 106.036 47.245C105.453 48.3842 104.286 49.4037 104.936 51.1258C105.043 51.4095 105.113 51.5005 105.183 51.5915C105.183 51.5915 105.209 51.6603 105.214 51.796C105.308 52.1049 105.397 52.2781 105.486 52.4513C105.486 52.4513 105.514 52.5293 105.536 52.6533C105.646 52.8395 105.733 52.9016 105.82 52.9637C105.82 52.9637 105.835 52.971 105.891 53.0577C106.127 53.1869 106.308 53.2295 106.489 53.2722C106.489 53.2722 106.563 53.2886 106.673 53.3697C106.977 53.4874 107.172 53.524 107.366 53.5606C107.366 53.5606 107.441 53.5785 107.553 53.6597C107.86 53.7778 108.056 53.8146 108.251 53.8514C108.251 53.8514 108.321 53.8704 108.43 53.9508C108.732 54.0679 108.924 54.1045 109.117 54.1412C109.117 54.1412 109.194 54.1588 109.305 54.2387C109.607 54.3553 109.799 54.392 109.99 54.4287C109.99 54.4287 110.069 54.447 110.182 54.5268C110.485 54.6439 110.676 54.6812 110.868 54.7184C110.868 54.7184 110.947 54.7363 111.053 54.8136C111.335 54.9292 111.511 54.9676 111.688 55.006C111.688 55.006 111.683 54.9984 111.68 55.0019Z" fill="#C6965C"/>
<path d="M87.8699 63.6615C87.5419 62.3193 87.2048 60.9871 86.8235 59.4802C89.0532 59.4802 90.965 59.4802 93.0496 59.4802C93.0048 62.0955 92.5295 64.4992 90.939 66.5802C90.4666 67.1983 89.9775 67.182 89.5756 66.3002C89.094 65.4932 88.6906 64.7803 88.1786 63.9433C87.9932 63.7644 87.9165 63.7096 87.8398 63.6549C87.8398 63.6549 87.8609 63.6714 87.8699 63.6615Z" fill="#C6965C"/>
<path d="M90.849 48.9579C92.4779 51.0936 92.8716 53.4962 93.1311 56.1197C91.0397 56.1197 89.0989 56.1197 86.9773 56.1197C87.189 53.6319 87.5856 51.3302 88.9735 49.314C89.4063 48.6854 89.9716 48.1829 90.849 48.9579Z" fill="#C6965C"/>
<path d="M81.2852 54.6768C82.0198 52.7703 83.1207 51.3017 84.8792 50.1138C84.5246 52.0766 84.238 53.8612 83.8463 55.6225C83.7857 55.8949 83.2657 56.1819 82.9178 56.2471C82.3622 56.3512 81.7728 56.2749 80.9565 56.2749C81.0747 55.6664 81.1603 55.2262 81.2852 54.6768Z" fill="#C6965C"/>
<path d="M95.7704 52.5474C95.5904 51.7838 95.4385 51.1396 95.2866 50.4955C97.5188 51.7159 98.6771 53.5985 99.2524 56.155C98.4667 56.2024 97.8266 56.3785 97.2745 56.2291C96.8615 56.1174 96.3845 55.6438 96.2497 55.2293C95.984 54.4126 95.9363 53.5251 95.7704 52.5474Z" fill="#C6965C"/>
<path d="M97.2131 63.8039C96.5987 64.4029 96.0514 64.9218 95.2112 65.7184C95.6151 63.5043 95.7728 61.6356 96.3842 59.9294C96.5573 59.4461 98.0547 59.4373 98.9448 59.2108C99.0985 59.3944 99.2521 59.578 99.4058 59.7616C98.6973 61.0823 97.9888 62.403 97.2131 63.8039Z" fill="#C6965C"/>
<path d="M81.1676 59.4787C81.7398 59.3944 82.2216 59.3861 82.7017 59.3526C83.8783 59.2705 84.1033 59.8828 83.8691 60.8651C81.5193 61.2291 81.1458 61.0488 81.1676 59.4787Z" fill="#C6965C"/>
</g>
<defs>
<filter id="filter0_i_17_188" x="0" y="0" width="148" height="152" filterUnits="userSpaceOnUse" color-interpolation-filters="sRGB">
<feFlood flood-opacity="0" result="BackgroundImageFix"/>
<feBlend mode="normal" in="SourceGraphic" in2="BackgroundImageFix" result="shape"/>
<feColorMatrix in="SourceAlpha" type="matrix" values="0 0 0 0 0 0 0 0 0 0 0 0 0 0 0 0 0 0 127 0" result="hardAlpha"/>
<feOffset dy="4"/>
<feGaussianBlur stdDeviation="2"/>
<feComposite in2="hardAlpha" operator="arithmetic" k2="-1" k3="1"/>
<feColorMatrix type="matrix" values="0 0 0 0 0 0 0 0 0 0 0 0 0 0 0 0 0 0 0.25 0"/>
<feBlend mode="normal" in2="shape" result="effect1_innerShadow_17_188"/>
</filter>
<filter id="filter1_i_17_188" x="0" y="0" width="148" height="148" filterUnits="userSpaceOnUse" color-interpolation-filters="sRGB">
<feFlood flood-opacity="0" result="BackgroundImageFix"/>
<feBlend mode="normal" in="SourceGraphic" in2="BackgroundImageFix" result="shape"/>
<feColorMatrix in="SourceAlpha" type="matrix" values="0 0 0 0 0 0 0 0 0 0 0 0 0 0 0 0 0 0 127 0" result="hardAlpha"/>
<feMorphology radius="20" operator="erode" in="SourceAlpha" result="effect1_innerShadow_17_188"/>
<feOffset/>
<feGaussianBlur stdDeviation="0.25"/>
<feComposite in2="hardAlpha" operator="arithmetic" k2="-1" k3="1"/>
<feColorMatrix type="matrix" values="0 0 0 0 0.262745 0 0 0 0 0.247059 0 0 0 0 0.243137 0 0 0 1 0"/>
<feBlend mode="normal" in2="shape" result="effect1_innerShadow_17_188"/>
</filter>
</defs>
</svg>
