<svg width="148" height="148" viewBox="0 0 148 148" fill="none" xmlns="http://www.w3.org/2000/svg">
<g filter="url(#filter0_i_17_270)">
<g filter="url(#filter1_i_17_270)">
<circle cx="74" cy="74" r="74" fill="url(#paint0_linear_17_270)"/>
</g>
<circle cx="74" cy="74" r="72" stroke="#C6965C" stroke-width="4"/>
<path d="M59.9899 112C59.6419 111.32 58.9611 110.609 59.0216 109.967C59.1198 108.926 60.1635 108.833 61.0923 108.818C63.7491 108.776 63.7472 108.764 64.0653 106.089C64.3167 103.975 64.5729 101.861 64.8456 99.5921C64.0716 99.5497 63.5033 99.492 62.935 99.4914C56.2021 99.485 49.4692 99.4916 42.7362 99.4854C38.7164 99.4817 37.0041 97.7918 37.003 93.8222C36.9989 78.8438 36.9991 63.8655 37.0028 48.8871C37.0037 44.9815 38.7268 43.2507 42.6103 43.2452C46.9525 43.2389 51.2954 43.2805 55.6365 43.2104C56.3985 43.1981 57.2754 42.9076 57.8932 42.4608C67.9405 35.1945 80.9705 35.1794 90.9974 42.4176C91.6514 42.8897 92.5789 43.1944 93.3855 43.2083C97.7752 43.2841 102.167 43.2343 106.558 43.2471C110.147 43.2576 111.938 45.0572 111.94 48.673C111.947 63.7977 111.948 78.9224 111.94 94.0472C111.938 97.7221 110.152 99.4766 106.421 99.4831C99.6393 99.4949 92.8576 99.4852 86.0758 99.4907C85.5029 99.4912 84.9299 99.5389 84.1135 99.5757C84.2951 101.182 84.4596 102.658 84.6303 104.134C84.692 104.667 84.7739 105.198 84.8378 105.731C85.1924 108.689 85.1965 108.63 88.0742 108.871C88.7324 108.926 89.6821 109.415 89.877 109.936C90.0563 110.415 89.4004 111.207 88.8977 111.918C79.1186 111.984 69.5543 111.992 59.9899 112ZM108.801 82.9806C108.811 71.467 108.828 59.9535 108.823 48.44C108.822 46.9341 108.285 46.3994 106.788 46.386C103.373 46.3556 99.9578 46.3667 96.5427 46.3755C96.2837 46.3761 96.0251 46.4921 95.757 46.5566C97.0607 48.515 98.3088 50.39 99.6535 52.4099C97.4866 52.8245 95.8299 52.9011 94.9223 50.8063C94.4662 49.7537 93.5904 49.378 92.4215 49.49C91.4063 49.5873 90.3744 49.5106 89.3498 49.5107C87.9599 49.5108 86.5699 49.5107 85.0642 49.5107C85.2591 50.6432 85.4051 51.4914 85.5968 52.6052C84.3772 52.3195 83.009 53.4376 82.3255 51.7838C81.3973 49.5382 81.4645 49.5104 79.0186 49.5107C78.4819 49.5107 77.9422 49.5474 77.4093 49.5029C76.4342 49.4214 75.9124 49.7502 76.0342 50.8129C76.0727 51.1492 76.0604 51.4989 76.0173 51.8355C75.8671 53.0084 74.9323 52.5472 74.2919 52.5998C73.6894 52.6493 73.03 52.754 72.8975 51.776C72.5898 49.5052 72.5506 49.5105 70.3032 49.5107C69.9617 49.5107 69.612 49.5588 69.2801 49.5024C67.7362 49.2399 66.8564 49.8143 66.7275 51.426C66.6562 52.3164 66.1705 52.7157 65.2622 52.6237C64.6535 52.562 64.0387 52.5601 63.3471 52.5276C63.5292 51.4658 63.6804 50.5841 63.8645 49.5105C61.3905 49.5105 59.1006 49.6155 56.8261 49.4731C55.3431 49.3804 54.4822 49.9511 53.7456 51.1428C52.7246 52.7946 51.5904 53.0607 49.3829 52.2166C50.6668 50.3133 51.9223 48.4522 53.3235 46.3751C49.6967 46.3751 46.3 46.3731 42.9032 46.3757C40.4491 46.3776 40.1112 46.7122 40.1108 49.1551C40.1091 59.986 40.1089 70.8169 40.1142 81.6477C40.1144 82.1818 40.1717 82.7159 40.1957 83.4495C40.6753 83.5749 41.154 83.8051 41.6346 83.8091C45.3913 83.8403 49.1483 83.8293 52.9053 83.829C71.0069 83.8277 89.1086 83.8305 107.21 83.8C107.721 83.7991 108.231 83.4417 108.801 82.9806ZM90.5749 96.3511C95.6456 96.3512 100.716 96.3514 105.787 96.3513C108.617 96.3513 108.828 96.1355 108.828 93.2402C108.828 91.8263 108.829 90.4123 108.828 88.9984C108.826 86.9919 108.825 86.9904 106.858 86.9904C85.5512 86.9901 64.2445 86.9902 42.9378 86.9902C42.499 86.9902 42.0556 87.0308 41.6223 86.982C40.5077 86.8565 40.0302 87.2488 40.0934 88.4421C40.1809 90.0952 40.1145 91.7564 40.1153 93.4142C40.1165 96.0721 40.3917 96.3507 43.0368 96.3508C58.7853 96.3516 74.5337 96.3511 90.5749 96.3511ZM67.3629 104.839C67.2236 106.081 67.0844 107.323 66.9306 108.695C72.0231 108.695 76.9399 108.695 82.0408 108.695C81.6767 105.755 81.3591 102.963 80.9438 100.185C80.9013 99.9007 80.276 99.5033 79.9163 99.4982C76.3166 99.4467 72.7157 99.48 69.1154 99.4553C68.334 99.4499 67.9689 99.7223 67.8956 100.523C67.7715 101.879 67.5675 103.228 67.3629 104.839ZM63.8322 46.381C64.3083 46.2257 65.031 46.2132 65.218 45.8904C66.0579 44.4411 66.7456 42.9035 67.614 41.1425C64.0861 42.2243 61.0971 43.7141 58.6529 46.3808C60.2887 46.3808 61.9246 46.3808 63.8322 46.381ZM82.8556 44.1346C83.3409 44.8753 83.7505 46.1775 84.3251 46.2549C86.2967 46.5204 88.3261 46.3568 90.3335 46.3568C90.3635 46.2168 90.3934 46.0769 90.4233 45.9369C87.7813 43.8168 84.9016 42.151 81.2213 41.181C81.8668 42.3383 82.3129 43.1383 82.8556 44.1346ZM72.5872 40.941C70.5749 42.1738 69.4108 44.0143 68.4302 46.3749C69.8459 46.3749 70.9159 46.4543 71.9617 46.3298C72.3064 46.2888 72.8396 45.732 72.8551 45.3914C72.9209 43.9451 72.8246 42.4914 72.5872 40.941ZM80.1961 46.222C79.7723 43.7834 78.1772 42.2478 76.0393 40.6396C76.0393 41.5378 76.0398 42.0616 76.0392 42.5854C76.0351 46.528 76.035 46.528 80.1961 46.222Z" fill="white"/>
<path d="M103.308 55.7296C105.098 56.5054 105.744 57.857 105.717 59.804C105.635 65.5068 105.694 71.2114 105.684 76.9153C105.68 79.6151 104.573 80.7165 101.849 80.7174C83.6162 80.7233 65.3832 80.723 47.1501 80.7184C44.3451 80.7177 43.2618 79.629 43.2583 76.8242C43.2512 71.1203 43.3066 65.4157 43.2287 59.7128C43.2019 57.7437 43.9222 56.4389 45.8743 55.6926C46.9915 55.6884 47.965 55.7231 48.9385 55.7233C67.0616 55.7279 85.1847 55.7283 103.308 55.7296ZM59.1342 76.0021C59.5829 75.5405 60.2916 75.1494 60.4387 74.6062C61.5091 70.6532 62.4705 66.6705 63.4569 62.6949C63.7138 61.6597 63.4602 60.7658 62.359 60.4907C61.1525 60.1893 60.5735 60.9737 60.3158 62.0467C59.8147 64.133 59.3254 66.2221 58.8176 68.3067C58.7243 68.6897 58.5662 69.0569 58.322 69.7703C57.8894 68.9321 57.7086 68.356 57.3457 67.9377C56.9287 67.4572 56.331 66.7756 55.8477 66.8035C55.2744 66.8367 54.6711 67.4689 54.2088 67.9616C53.8154 68.3807 53.6036 68.9702 53.1093 69.8399C52.3715 66.8938 51.7568 64.3937 51.1156 61.9004C50.8529 60.8787 50.2215 60.197 49.1054 60.4901C48.0044 60.7792 47.754 61.6624 48.0108 62.6971C49.0092 66.72 49.9821 70.75 51.0638 74.7505C51.2102 75.2917 51.9058 76.0293 52.3743 76.0496C52.9367 76.074 53.6998 75.5516 54.0693 75.0431C54.7138 74.156 55.1236 73.0984 55.7667 71.8504C56.3388 72.9362 56.6963 73.844 57.2561 74.6025C57.6794 75.176 58.361 75.5589 59.1342 76.0021ZM80.4657 69.644C81.0431 67.3264 81.6265 65.0104 82.1951 62.6907C82.4492 61.6545 82.1924 60.7724 81.0936 60.488C79.9783 60.1992 79.3513 60.8838 79.0923 61.9075C78.7098 63.4195 78.3658 64.9412 78.0006 66.4575C77.7604 67.455 77.5116 68.4505 77.2666 69.4468C76.6291 68.9359 76.4473 68.3594 76.0842 67.94C75.6679 67.459 75.0718 66.7768 74.5883 66.8036C74.0155 66.8354 73.4104 67.4657 72.9484 67.9578C72.5548 68.3772 72.3441 68.9683 71.8464 69.8475C71.1328 66.9927 70.5265 64.5934 69.9353 62.1904C69.6638 61.087 69.1493 60.1654 67.8537 60.4934C66.571 60.8182 66.5258 61.8616 66.8063 62.9722C67.773 66.8001 68.6744 70.6457 69.7289 74.4491C69.9112 75.1067 70.6485 75.9228 71.2571 76.0486C71.7241 76.1451 72.5255 75.3684 72.9385 74.8045C73.5391 73.9844 73.9241 73.0064 74.5272 71.8548C75.1578 73.0638 75.5322 74.0322 76.1288 74.8357C76.5129 75.3531 77.3109 76.0172 77.7654 75.9147C78.3502 75.7829 79.0021 75.0295 79.2259 74.4016C79.7471 72.9392 80.0292 71.3917 80.4657 69.644ZM98.9103 70.8149C99.5826 68.1192 100.258 65.4243 100.926 62.7273C101.18 61.7006 100.966 60.7997 99.8655 60.5009C98.662 60.1742 98.0702 60.9388 97.7995 62.0124C97.6207 62.7213 97.456 63.4337 97.2866 64.1449C96.866 65.9107 96.4463 67.6767 95.9249 69.8687C95.4539 69.0319 95.2936 68.5558 94.9783 68.2297C94.4408 67.6738 93.8355 66.8735 93.2024 66.818C92.6951 66.7735 92.0604 67.641 91.5658 68.1804C91.2361 68.54 91.0532 69.0343 90.5844 69.8529C89.8632 66.9661 89.2525 64.5259 88.6444 62.085C88.381 61.0281 87.8403 60.2011 86.626 60.4828C85.4295 60.7603 85.234 61.7098 85.5042 62.793C86.4833 66.7183 87.4201 70.6553 88.4909 74.5555C88.6605 75.1731 89.4059 75.9991 89.9445 76.046C90.488 76.0933 91.2459 75.3945 91.6573 74.8364C92.2654 74.0113 92.6503 73.0216 93.2568 71.8595C93.9001 73.08 94.3084 74.0789 94.9214 74.9306C95.2711 75.4166 96.0188 76.011 96.4715 75.9276C97.0309 75.8246 97.6825 75.1545 97.916 74.5765C98.3681 73.4574 98.5556 72.2313 98.9103 70.8149Z" fill="#C6965C"/>
<path d="M74.5777 90.1204C75.1291 90.6803 75.8306 91.1908 75.928 91.7981C75.9902 92.1859 75.2261 92.9657 74.7068 93.1067C74.2753 93.2239 73.489 92.7984 73.1623 92.3782C72.4844 91.5063 73.0776 90.5712 74.5777 90.1204Z" fill="#C6965C"/>
</g>
<defs>
<filter id="filter0_i_17_270" x="0" y="0" width="148" height="152" filterUnits="userSpaceOnUse" color-interpolation-filters="sRGB">
<feFlood flood-opacity="0" result="BackgroundImageFix"/>
<feBlend mode="normal" in="SourceGraphic" in2="BackgroundImageFix" result="shape"/>
<feColorMatrix in="SourceAlpha" type="matrix" values="0 0 0 0 0 0 0 0 0 0 0 0 0 0 0 0 0 0 127 0" result="hardAlpha"/>
<feOffset dy="4"/>
<feGaussianBlur stdDeviation="2"/>
<feComposite in2="hardAlpha" operator="arithmetic" k2="-1" k3="1"/>
<feColorMatrix type="matrix" values="0 0 0 0 0 0 0 0 0 0 0 0 0 0 0 0 0 0 0.25 0"/>
<feBlend mode="normal" in2="shape" result="effect1_innerShadow_17_270"/>
</filter>
<filter id="filter1_i_17_270" x="0" y="0" width="148" height="148" filterUnits="userSpaceOnUse" color-interpolation-filters="sRGB">
<feFlood flood-opacity="0" result="BackgroundImageFix"/>
<feBlend mode="normal" in="SourceGraphic" in2="BackgroundImageFix" result="shape"/>
<feColorMatrix in="SourceAlpha" type="matrix" values="0 0 0 0 0 0 0 0 0 0 0 0 0 0 0 0 0 0 127 0" result="hardAlpha"/>
<feMorphology radius="20" operator="erode" in="SourceAlpha" result="effect1_innerShadow_17_270"/>
<feOffset/>
<feGaussianBlur stdDeviation="0.25"/>
<feComposite in2="hardAlpha" operator="arithmetic" k2="-1" k3="1"/>
<feColorMatrix type="matrix" values="0 0 0 0 0.262745 0 0 0 0 0.247059 0 0 0 0 0.243137 0 0 0 1 0"/>
<feBlend mode="normal" in2="shape" result="effect1_innerShadow_17_270"/>
</filter>
<linearGradient id="paint0_linear_17_270" x1="74" y1="142.29" x2="74" y2="-37.2284" gradientUnits="userSpaceOnUse">
<stop stop-color="#332D2D"/>
<stop offset="1"/>
</linearGradient>
</defs>
</svg>
