<svg width="148" height="148" viewBox="0 0 148 148" fill="none" xmlns="http://www.w3.org/2000/svg">
<g filter="url(#filter0_i_17_251)">
<circle cx="74" cy="74" r="74" fill="url(#paint0_linear_17_251)"/>
</g>
<circle cx="74" cy="74" r="72" stroke="#C6965C" stroke-width="4"/>
<path d="M39.7407 92.796C39.7407 90.4798 39.7407 88.1636 39.7915 85.843C40.0337 85.478 40.2387 85.1237 40.4144 84.7555C41.3945 82.7008 42.1426 80.4928 43.3922 78.6187C45.6383 75.25 48.9562 73.1443 52.8354 71.7832C53.1713 71.7035 53.4075 71.6034 53.6285 71.4979C53.6132 71.4926 53.6028 71.5232 53.709 71.5448C54.1563 71.4642 54.4975 71.362 54.8271 71.2441C54.8154 71.2284 54.8293 71.2649 54.9616 71.2806C55.5801 71.2508 56.0661 71.2033 56.5525 71.1598C67.7209 70.1616 77.0783 78.7883 76.7641 89.9948C76.6971 92.3846 75.8584 94.7528 75.3806 97.1388C75.3859 97.1467 75.4016 97.1358 75.3121 97.2051C75.1897 97.4187 75.1567 97.5629 75.1364 97.6993C75.1491 97.6913 75.1327 97.6663 75.0556 97.7195C74.9518 97.8906 74.9252 98.0084 74.9088 98.1233C74.9192 98.1203 74.9131 98.0997 74.8353 98.1377C74.7098 98.3358 74.6622 98.4959 74.6291 98.6515C74.6436 98.6469 74.6343 98.618 74.5571 98.6579C74.4375 98.8596 74.3951 99.0214 74.3682 99.1881C74.3838 99.1929 74.3932 99.1617 74.3048 99.1752C74.1597 99.2916 74.103 99.3945 73.9928 99.5621C71.0662 103.882 67.1714 106.634 62.1162 107.704C61.8298 107.765 61.5949 108.069 61.3361 108.259C59.5531 108.259 57.7701 108.259 55.9353 108.171C55.6397 107.993 55.4027 107.873 55.1513 107.818C47.2759 106.098 42.2363 101.422 40.2376 93.5534C40.1673 93.2767 39.9106 93.0474 39.7407 92.796ZM51.5636 94.6793C51.1172 93.8154 50.6108 92.9763 50.241 92.0808C49.8625 91.1644 49.3883 90.4193 48.2906 90.816C47.2249 91.2011 47.2012 92.0924 47.5289 93.0359C48.7923 96.6745 51.2418 99.118 54.8898 100.364C55.8402 100.688 56.7232 100.672 57.0875 99.5884C57.4546 98.4958 56.6556 98.1014 55.8108 97.6185C54.373 96.7968 53.0519 95.771 51.5636 94.6793ZM66.3799 81.4852C64.8385 80.5514 63.3319 79.552 61.7421 78.7093C60.8437 78.233 59.9309 78.4794 59.6056 79.5591C59.2956 80.5882 59.9581 81.0908 60.8634 81.3949C63.6584 82.3339 65.551 84.1963 66.4817 87.0045C66.8022 87.9716 67.366 88.6335 68.441 88.2508C69.5282 87.8638 69.6038 86.899 69.1507 86.0407C68.3507 84.5255 67.401 83.0893 66.3799 81.4852ZM59.3659 92.1898C59.6971 91.9721 60.0708 91.7986 60.3521 91.5288C61.4974 90.4301 61.4579 88.5893 60.2951 87.4876C59.1542 86.4066 57.4489 86.4381 56.3505 87.5605C55.2198 88.716 55.167 90.6429 56.4664 91.5544C57.1774 92.0533 58.2477 92.0401 59.3659 92.1898Z" fill="#C6965C"/>
<path d="M57.8702 39.7407C57.8702 39.7407 58.0035 39.7407 58.1661 39.7945C58.8094 39.9005 59.2899 39.9979 59.7705 39.9983C72.1317 40.0071 84.4929 40.009 96.854 39.995C97.3677 39.9944 97.8812 39.8292 98.3948 39.7407C98.5947 39.7407 98.7947 39.7407 99.0086 39.8036C100.111 40.9606 101.21 42.0444 102.285 43.1511C104.189 45.1099 106.078 47.0826 107.977 49.1768C107.989 64.5172 107.996 79.7301 108 94.9431C108 95.2971 107.96 95.6511 107.907 96.0567C107.772 96.2321 107.669 96.3558 107.432 96.5024C106.9 96.5604 106.503 96.6262 106.106 96.6265C97.3674 96.6328 88.6283 96.6328 79.8893 96.6285C79.5007 96.6283 79.1121 96.5761 78.7227 96.548C78.9433 93.8799 79.0025 93.8213 81.3842 93.8213C84.6669 93.8212 87.9496 93.8305 91.2322 93.819C95.7551 93.8033 100.278 93.7719 104.9 93.7354C105.09 93.2229 105.259 92.7222 105.259 92.2214C105.274 79.1291 105.272 66.0367 105.268 52.9443C105.268 52.4579 105.224 51.9715 105.152 51.3892C102.983 51.2496 100.864 51.1751 98.7441 51.1757C97.7343 51.176 97.0284 50.8388 96.7048 49.7378C96.6548 47.3209 96.5868 45.027 96.3995 42.6958C84.4076 42.6507 72.5352 42.6424 60.6627 42.6394C60.4454 42.6394 60.2281 42.7016 59.9384 42.8136C59.8413 44.0412 59.793 45.19 59.7954 46.3387C59.81 53.3775 59.8361 60.4162 59.8235 67.5589C59.5004 67.8341 59.2278 68.108 58.9206 68.1548C58.3348 68.2441 57.7293 68.2038 57.1312 68.1571C57.1306 68.0968 57.1307 67.9764 57.1367 67.9447C57.1436 67.8465 57.1213 67.7879 57.0592 67.613C57.036 61.7595 57.0166 56.0301 57.028 50.3007C57.0346 46.9717 57.0907 43.6428 57.1246 40.3139C57.1246 40.3139 57.1214 40.3126 57.1925 40.3013C57.3028 40.2124 57.3421 40.1347 57.3814 40.057C57.3814 40.057 57.3845 40.0454 57.4676 40.0457C57.6572 39.9442 57.7637 39.8425 57.8702 39.7407ZM101.429 46.4355C100.963 45.8592 100.497 45.283 100.031 44.7068C99.9114 44.7999 99.7918 44.893 99.6722 44.9861C99.6722 46.0566 99.6722 47.1272 99.6722 48.2304C100.816 48.2304 101.854 48.2304 102.892 48.2304C102.989 48.1102 103.086 47.9899 103.183 47.8696C102.643 47.4357 102.102 47.0018 101.429 46.4355Z" fill="white"/>
<path d="M62.5098 55.0608C63.0774 54.2087 63.8646 53.9436 64.8852 53.9565C68.6054 54.0037 72.3265 53.9682 76.0473 53.9785C77.8466 53.9835 78.2403 54.3796 78.2544 56.1595C78.2661 57.6211 78.2718 59.0831 78.252 60.5446C78.2313 62.064 77.8441 62.4897 76.3828 62.4971C72.3963 62.5172 68.409 62.5423 64.4241 62.4618C63.8304 62.4498 63.2481 61.8785 62.6209 61.3991C62.5573 59.1751 62.5336 57.1179 62.5098 55.0608Z" fill="#C6965C"/>
<path d="M94.3954 65.3576C96.5266 65.3579 98.5245 65.3674 100.522 65.3544C101.524 65.3479 102.361 65.6287 102.382 66.7686C102.404 67.9191 101.564 68.2287 100.567 68.2287C88.5357 68.2295 76.5043 68.2296 64.4728 68.2284C63.4688 68.2283 62.6426 67.8937 62.6802 66.7474C62.7175 65.6103 63.5629 65.3525 64.5609 65.3533C74.4613 65.3608 84.3617 65.3577 94.3954 65.3576Z" fill="white"/>
<path d="M96.6558 78.8597C95.9425 79.5376 95.1093 79.9432 94.4932 79.1973C94.0645 78.6782 94.1075 77.7696 93.8773 76.7614C93.0893 76.7614 91.9148 76.7617 90.7403 76.7614C88.6081 76.7607 86.476 76.7619 84.3439 76.7577C83.3946 76.7558 82.6074 76.4297 82.5902 75.3667C82.5718 74.2331 83.362 73.8852 84.3847 73.8881C87.2719 73.8962 90.1591 73.8904 93.0464 73.8901C93.4772 73.8901 93.9081 73.8901 94.4754 73.8901C94.2784 73.5044 94.0425 73.2619 94.0695 73.0534C94.1429 72.4867 94.158 71.718 94.516 71.4371C94.8732 71.1569 95.8095 71.1331 96.1579 71.4128C97.2593 72.2968 98.2403 73.3427 99.1966 74.3911C99.7944 75.0465 99.6762 75.7993 99.0776 76.4288C98.3126 77.2333 97.514 78.0057 96.6558 78.8597Z" fill="#C6965C"/>
<path d="M85.959 90.6521C84.9599 89.6932 84.0361 88.7982 83.1306 87.885C82.3725 87.1205 82.3661 86.3223 83.1146 85.5458C83.8225 84.8113 84.5495 84.095 85.268 83.3706C85.9078 82.7256 86.5616 82.0249 87.5537 82.6995C88.513 83.3518 88.2519 84.2065 87.6845 85.2C88.218 85.2351 88.6301 85.2847 89.0423 85.2858C91.9258 85.293 94.8094 85.2997 97.6929 85.2855C98.7005 85.2805 99.5273 85.5575 99.5262 86.7073C99.5251 87.8796 98.6531 88.1037 97.6696 88.1013C94.8748 88.0944 92.0799 88.0996 89.2851 88.1C88.8118 88.1001 88.3386 88.1 88.1358 88.1C87.9868 89.0598 88.0272 89.8924 87.6845 90.5139C87.5296 90.795 86.6131 90.6562 85.959 90.6521Z" fill="#C6965C"/>
<path d="M97.0603 53.9684C98.3901 53.9707 99.5872 53.9562 100.784 53.9806C101.692 53.9992 102.377 54.4061 102.388 55.3829C102.399 56.4394 101.688 56.8305 100.712 56.8306C94.772 56.831 88.8323 56.8292 82.8925 56.8332C81.9297 56.8338 81.1643 56.4945 81.153 55.4436C81.1408 54.3108 81.9649 53.9718 82.9645 53.9712C87.6188 53.968 92.2731 53.9689 97.0603 53.9684Z" fill="white"/>
<path d="M97.0613 62.5055C92.4895 62.5055 88.0509 62.507 83.6123 62.5031C83.1695 62.5027 82.6347 62.6188 82.3058 62.416C81.837 62.1269 81.1886 61.5666 81.2201 61.1701C81.2599 60.668 81.8615 60.1652 82.3107 59.7631C82.4899 59.6027 82.9092 59.6983 83.2192 59.6982C88.9006 59.6956 94.582 59.696 100.263 59.697C100.53 59.697 100.885 59.6012 101.045 59.7345C101.537 60.1429 102.299 60.64 102.301 61.105C102.302 61.5627 101.553 62.3402 101.046 62.4202C99.7886 62.6182 98.4815 62.4979 97.0613 62.5055Z" fill="white"/>
<defs>
<filter id="filter0_i_17_251" x="0" y="0" width="148" height="148" filterUnits="userSpaceOnUse" color-interpolation-filters="sRGB">
<feFlood flood-opacity="0" result="BackgroundImageFix"/>
<feBlend mode="normal" in="SourceGraphic" in2="BackgroundImageFix" result="shape"/>
<feColorMatrix in="SourceAlpha" type="matrix" values="0 0 0 0 0 0 0 0 0 0 0 0 0 0 0 0 0 0 127 0" result="hardAlpha"/>
<feMorphology radius="20" operator="erode" in="SourceAlpha" result="effect1_innerShadow_17_251"/>
<feOffset/>
<feGaussianBlur stdDeviation="0.25"/>
<feComposite in2="hardAlpha" operator="arithmetic" k2="-1" k3="1"/>
<feColorMatrix type="matrix" values="0 0 0 0 0 0 0 0 0 0 0 0 0 0 0 0 0 0 0.25 0"/>
<feBlend mode="normal" in2="shape" result="effect1_innerShadow_17_251"/>
</filter>
<linearGradient id="paint0_linear_17_251" x1="74" y1="142.29" x2="74" y2="-5.90594e-07" gradientUnits="userSpaceOnUse">
<stop stop-color="#E73E3E"/>
<stop offset="1" stop-color="#520A0E"/>
</linearGradient>
</defs>
</svg>
